if (_typeface_js && _typeface_js.loadFace) _typeface_js.loadFace({"glyphs":{"0":{"ha":328,"x_min":0,"x_max":0,"o":"m 164 0 l 164 0 b 257 94 215 0 257 42 l 257 947 b 164 1042 257 1000 215 1042 b 69 947 111 1042 69 1000 l 69 94 b 164 0 69 42 111 0 z m 164 1000 l 164 1000 b 215 947 192 1000 215 976 l 215 94 b 164 42 215 65 192 42 b 111 94 135 42 111 65 l 111 947 b 164 1000 111 976 135 1000 z "},"1":{"ha":260,"x_min":0,"x_max":0,"o":"m 164 -1 l 164 -1 b 185 19 176 -1 185 8 l 185 1019 b 172 1039 185 1028 181 1036 b 150 1035 164 1042 156 1040 l 76 961 b 76 932 68 953 68 940 b 107 932 85 924 99 924 l 143 968 l 143 19 b 164 -1 143 8 153 -1 z "},"2":{"ha":329,"x_min":0,"x_max":0,"o":"m 238 115 b 217 94 226 115 217 106 b 165 42 217 65 193 42 l 117 42 l 258 944 b 258 947 258 946 258 947 b 165 1042 258 1000 217 1042 b 71 947 113 1042 71 1000 b 92 926 71 936 81 926 b 114 947 104 926 114 936 b 165 1000 114 976 136 1000 b 217 950 193 1000 215 978 l 71 25 b 76 7 71 18 72 13 b 92 0 81 3 86 0 l 165 0 b 258 94 217 0 258 42 b 238 115 258 106 249 115 z "},"3":{"ha":329,"x_min":0,"x_max":0,"o":"m 258 703 l 258 947 b 164 1042 258 1000 217 1042 b 71 947 113 1042 71 1000 b 92 926 71 936 81 926 b 113 947 104 926 113 936 b 164 1000 113 976 136 1000 b 217 947 193 1000 217 976 l 217 703 b 164 651 217 675 193 651 b 164 651 164 651 164 651 l 164 651 b 143 631 153 651 143 642 b 164 608 143 618 153 608 b 217 557 193 608 217 586 l 217 94 b 164 42 217 65 193 42 b 113 94 136 42 113 65 b 92 115 113 106 104 115 b 71 94 81 115 71 106 b 164 0 71 42 113 0 b 258 94 217 0 258 42 l 258 557 b 224 631 258 586 244 613 b 258 703 244 647 258 674 z "},"4":{"ha":331,"x_min":0,"x_max":0,"o":"m 236 1 l 236 1 b 258 22 249 1 258 11 l 258 1022 b 240 1043 258 1032 250 1042 b 217 1028 229 1044 219 1038 l 71 528 b 74 510 69 522 71 515 b 92 501 78 504 85 501 l 215 501 l 215 22 b 236 1 215 11 225 1 z m 119 543 l 119 543 l 215 874 l 215 543 z "},"5":{"ha":331,"x_min":0,"x_max":0,"o":"m 164 0 l 164 0 b 258 94 215 0 258 42 l 258 449 b 164 542 258 500 215 542 l 113 542 l 113 1000 l 236 1000 b 258 1021 249 1000 258 1008 b 236 1042 258 1032 249 1042 l 92 1042 b 69 1021 79 1042 69 1032 l 69 521 b 92 500 69 510 79 500 l 164 500 b 215 449 192 500 215 476 l 215 94 b 164 42 215 65 193 42 b 113 94 136 42 113 65 b 92 115 113 106 103 115 b 69 94 79 115 69 106 b 164 0 69 42 113 0 z "},"6":{"ha":329,"x_min":0,"x_max":0,"o":"m 163 0 l 163 0 b 257 94 214 0 257 42 l 257 449 b 163 542 257 500 214 542 b 111 526 143 542 126 536 l 111 947 b 163 1000 111 976 135 1000 b 214 947 192 1000 214 976 b 236 926 214 936 224 926 b 257 947 247 926 257 936 b 163 1042 257 1000 214 1042 b 69 947 111 1042 69 1000 l 69 94 b 163 0 69 42 111 0 z m 111 449 l 111 449 b 163 500 111 476 135 500 b 214 449 192 500 214 476 l 214 94 b 163 42 214 65 192 42 b 111 94 135 42 111 65 z "},"7":{"ha":329,"x_min":0,"x_max":0,"o":"m 92 0 l 92 0 b 113 18 103 0 111 7 l 258 1018 b 253 1035 260 1024 257 1029 b 238 1042 249 1039 243 1042 l 92 1042 b 71 1021 81 1042 71 1032 b 92 1000 71 1008 81 1000 l 213 1000 l 71 24 b 89 0 69 13 78 1 b 92 0 90 0 90 0 z "},"8":{"ha":331,"x_min":0,"x_max":0,"o":"m 257 593 l 257 947 b 163 1042 257 1000 215 1042 b 69 947 111 1042 69 1000 l 69 593 b 104 521 69 564 83 538 b 69 449 83 504 69 478 l 69 94 b 163 0 69 42 111 0 b 257 94 215 0 257 42 l 257 449 b 222 521 257 478 243 504 b 257 593 243 538 257 564 z m 111 947 b 163 1000 111 976 135 1000 b 215 947 192 1000 215 976 l 215 593 b 163 542 215 565 192 542 b 111 593 135 542 111 565 l 111 947 z m 215 94 b 163 42 215 65 192 42 b 111 94 135 42 111 65 l 111 449 b 163 500 111 476 135 500 b 215 449 192 500 215 476 l 215 94 z "},"9":{"ha":331,"x_min":0,"x_max":0,"o":"m 164 0 l 164 0 b 258 94 215 0 258 42 l 258 947 b 164 1042 258 1000 215 1042 b 69 947 113 1042 69 1000 l 69 593 b 164 500 69 542 113 500 b 215 515 183 500 200 506 l 215 94 b 164 42 215 65 192 42 b 113 94 135 42 113 65 b 92 115 113 106 103 115 b 69 94 79 115 69 106 b 164 0 69 42 113 0 z m 164 1000 l 164 1000 b 215 947 192 1000 215 976 l 215 593 b 164 542 215 565 192 542 b 113 593 135 542 113 565 l 113 947 b 164 1000 113 976 135 1000 z "}," ":{"ha":236,"x_min":0,"x_max":0,"o":""},"A":{"ha":333,"x_min":0,"x_max":0,"o":"m 258 946 b 164 1040 258 997 215 1040 b 69 946 113 1040 69 997 l 69 19 b 92 -1 69 7 79 -1 b 113 19 103 -1 113 7 l 113 497 l 215 497 l 215 19 b 236 -1 215 7 225 -1 b 258 19 249 -1 258 7 l 258 850 b 258 850 258 850 258 850 l 258 946 z m 113 540 l 113 946 b 164 997 113 975 136 997 b 215 946 193 997 215 975 l 215 578 b 215 578 215 578 215 578 l 215 540 l 113 540 z "},"B":{"ha":328,"x_min":0,"x_max":0,"o":"m 163 1042 b 69 949 111 1042 69 1000 l 69 94 b 163 0 69 42 111 0 b 257 94 215 0 257 42 l 257 215 l 257 449 l 257 457 b 256 464 257 460 257 461 b 222 521 251 488 239 507 b 257 593 243 538 257 564 l 257 675 l 257 828 l 257 949 b 163 1042 257 1000 215 1042 z m 215 449 l 215 215 l 215 94 b 163 42 215 65 192 42 b 111 94 135 42 111 65 l 111 500 l 163 500 b 215 449 192 500 215 476 z m 111 542 l 111 949 b 163 1000 111 976 135 1000 b 215 949 192 1000 215 976 l 215 828 l 215 675 l 215 593 b 163 542 215 565 192 542 l 111 542 z "},"C":{"ha":332,"x_min":0,"x_max":0,"o":"m 164 0 l 164 0 b 257 94 215 0 257 42 b 236 115 257 106 249 115 b 215 94 225 115 215 106 b 164 42 215 65 192 42 b 113 94 135 42 113 65 l 113 949 b 164 1000 113 976 135 1000 b 215 949 192 1000 215 976 b 236 926 215 936 225 926 b 257 949 249 926 257 936 b 164 1042 257 1000 215 1042 b 69 949 111 1042 69 1000 l 69 94 b 164 0 69 42 111 0 z "},"D":{"ha":333,"x_min":0,"x_max":0,"o":"m 164 1042 l 92 1042 b 71 1021 81 1042 71 1032 l 71 21 b 92 0 71 10 81 0 l 164 0 b 258 94 217 0 258 42 l 258 949 b 164 1042 258 1000 217 1042 z m 217 94 b 164 42 217 65 193 42 l 113 42 l 113 1000 l 164 1000 b 217 949 193 1000 217 976 l 217 94 z "},"$":{"ha":333,"x_min":0,"x_max":0,"o":"m 114 894 b 165 944 115 922 138 944 b 165 944 165 944 165 944 b 165 944 165 944 165 944 b 217 893 193 944 217 921 b 238 871 217 881 226 871 b 260 893 250 871 260 881 b 186 983 260 938 228 974 l 186 1022 b 165 1043 186 1033 176 1043 b 144 1022 154 1043 144 1033 l 144 983 b 71 893 103 974 71 938 b 72 889 71 892 71 890 l 217 149 b 165 100 215 122 193 100 b 114 151 136 100 114 122 b 93 172 114 163 104 172 b 71 151 81 172 71 163 b 144 60 71 107 103 69 l 144 22 b 165 1 144 11 154 1 b 186 22 176 1 186 11 l 186 60 b 260 151 228 69 260 107 b 258 156 260 153 258 154 l 114 894 z "},"%":{"ha":333,"x_min":0,"x_max":0,"o":"m 92 0 l 92 0 b 113 18 101 0 111 7 l 258 1017 b 240 1042 260 1029 251 1039 b 217 1024 228 1043 218 1035 l 71 24 b 89 0 69 13 76 1 b 92 0 89 0 90 0 z m 128 883 l 128 883 b 185 942 160 883 185 910 b 128 999 185 972 160 999 b 69 942 96 999 69 972 b 128 883 69 910 96 883 z m 128 957 l 128 957 b 143 942 136 957 143 950 b 128 925 143 932 136 925 b 113 942 119 925 113 932 b 128 957 113 950 119 957 z m 201 19 l 201 19 b 258 76 233 19 258 44 b 201 135 258 108 233 135 b 143 76 169 135 143 108 b 201 19 143 44 169 19 z m 201 92 l 201 92 b 217 76 210 92 217 85 b 201 61 217 68 210 61 b 185 76 192 61 185 68 b 201 92 185 85 192 92 z "},"#":{"ha":293,"x_min":0,"x_max":0,"o":"m 222 497 l 215 497 l 215 544 l 222 544 b 243 565 235 544 243 553 b 222 586 243 576 235 586 l 215 586 l 215 593 b 194 614 215 606 206 614 b 174 593 183 614 174 606 l 174 586 l 126 586 l 126 593 b 106 614 126 606 117 614 b 85 593 93 614 85 606 l 85 586 l 78 586 b 56 565 65 586 56 576 b 78 544 56 553 65 544 l 85 544 l 85 497 l 78 497 b 56 476 65 497 56 488 b 78 454 56 464 65 454 l 85 454 l 85 447 b 106 426 85 436 93 426 b 126 447 117 426 126 436 l 126 454 l 174 454 l 174 447 b 194 426 174 436 183 426 b 215 447 206 426 215 436 l 215 454 l 222 454 b 243 476 235 454 243 464 b 222 497 243 488 235 497 z m 126 497 l 126 544 l 174 544 l 174 497 l 126 497 z "},"&":{"ha":376,"x_min":0,"x_max":0,"o":"m 297 692 l 257 692 l 257 753 b 236 774 257 765 249 774 b 215 753 225 774 215 765 l 215 692 l 164 692 b 164 692 164 692 164 692 b 113 744 135 692 113 715 l 113 949 b 164 1000 113 976 135 1000 b 215 949 192 1000 215 976 b 236 926 215 936 225 926 b 257 949 249 926 257 936 b 164 1042 257 1000 215 1042 b 69 949 113 1042 69 1000 l 69 744 b 104 671 69 714 83 689 b 69 599 83 654 69 628 l 69 94 b 164 0 69 42 113 0 l 236 0 b 257 21 249 0 257 10 l 257 650 l 297 650 b 318 671 308 650 318 660 b 297 692 318 683 308 692 z m 215 43 l 164 43 b 113 94 135 43 113 65 l 113 599 b 164 650 113 626 135 650 l 215 650 l 215 43 z "},"(":{"ha":250,"x_min":0,"x_max":0,"o":"m 163 0 l 163 0 b 185 21 175 0 185 10 b 163 42 185 32 175 42 b 111 93 135 42 111 65 l 111 947 b 163 999 111 976 135 999 b 185 1021 175 999 185 1008 b 163 1042 185 1032 175 1042 b 69 947 111 1042 69 999 l 69 93 b 163 0 69 42 111 0 z "},")":{"ha":264,"x_min":0,"x_max":0,"o":"m 89 0 l 89 0 b 183 93 142 0 183 42 l 183 947 b 89 1042 183 999 142 1042 b 68 1021 78 1042 68 1032 b 89 999 68 1008 78 999 b 140 947 118 999 140 976 l 140 93 b 89 42 140 65 118 42 b 68 21 78 42 68 32 b 89 0 68 10 78 0 z "},"E":{"ha":333,"x_min":0,"x_max":0,"o":"m 236 500 b 257 521 247 500 257 510 b 236 542 257 532 247 542 l 111 542 l 111 949 b 163 1000 111 976 135 1000 b 214 949 192 1000 214 976 b 236 926 214 936 224 926 b 257 949 247 926 257 936 b 163 1042 257 1000 215 1042 b 69 949 111 1042 69 1000 l 69 94 b 163 0 69 42 111 0 b 257 94 215 0 257 42 b 236 115 257 106 247 115 b 214 94 224 115 214 106 b 163 42 214 65 192 42 b 111 94 135 42 111 65 l 111 500 l 236 500 z "},"F":{"ha":307,"x_min":0,"x_max":0,"o":"m 238 546 l 111 546 l 111 999 l 238 999 b 258 1021 249 999 258 1008 b 238 1042 258 1032 249 1042 l 90 1042 b 69 1021 79 1042 69 1032 l 69 21 b 90 0 69 10 79 0 b 111 21 103 0 111 10 l 111 503 l 238 503 b 258 524 249 503 258 513 b 238 546 258 536 249 546 z "},"G":{"ha":326,"x_min":0,"x_max":0,"o":"m 164 0 l 164 0 b 257 94 215 0 257 42 l 257 385 b 236 406 257 397 249 406 l 164 406 b 143 385 153 406 143 397 b 164 364 143 374 153 364 l 215 364 l 215 94 b 164 42 215 65 192 42 b 113 94 135 42 113 65 l 113 949 b 164 1000 113 976 135 1000 b 215 949 192 1000 215 976 b 236 926 215 936 225 926 b 257 949 249 926 257 936 b 164 1042 257 1000 215 1042 b 69 949 113 1042 69 1000 l 69 94 b 164 0 69 42 113 0 z "},"H":{"ha":326,"x_min":0,"x_max":0,"o":"m 235 1042 b 214 1021 224 1042 214 1032 l 214 542 l 111 542 l 111 1021 b 90 1042 111 1032 101 1042 b 69 1021 78 1042 69 1032 l 69 21 b 90 0 69 10 78 0 b 111 21 101 0 111 10 l 111 500 l 214 500 l 214 21 b 235 0 214 10 224 0 b 257 21 247 0 257 10 l 257 1021 b 235 1042 257 1032 247 1042 z "},"I":{"ha":181,"x_min":0,"x_max":0,"o":"m 90 0 l 90 0 b 113 21 103 0 113 10 l 113 1021 b 90 1042 113 1032 103 1042 b 69 1021 79 1042 69 1032 l 69 21 b 90 0 69 10 79 0 z "},"J":{"ha":333,"x_min":0,"x_max":0,"o":"m 164 0 l 164 0 b 257 94 215 0 257 42 l 257 1021 b 236 1042 257 1032 249 1042 b 215 1021 225 1042 215 1032 l 215 94 b 164 42 215 65 192 42 b 113 94 135 42 113 65 b 90 115 113 106 103 115 b 69 94 79 115 69 106 b 164 0 69 42 113 0 z "},"K":{"ha":329,"x_min":0,"x_max":0,"o":"m 257 24 l 140 610 l 257 1014 b 242 1039 260 1025 254 1036 b 217 1025 231 1043 219 1036 l 113 663 l 113 1019 b 92 1040 113 1031 103 1040 b 69 1019 79 1040 69 1031 l 69 19 b 92 -1 69 8 79 -1 b 113 19 103 -1 113 8 l 113 510 l 115 521 l 215 15 b 236 -1 218 6 226 -1 b 240 -1 238 -1 239 -1 b 257 24 251 1 260 13 z "},"L":{"ha":292,"x_min":0,"x_max":0,"o":"m 236 0 l 236 0 b 257 21 247 0 257 10 b 236 42 257 33 247 42 l 163 42 b 111 94 135 42 111 65 l 111 1021 b 90 1042 111 1032 101 1042 b 69 1021 79 1042 69 1032 l 69 94 b 163 0 69 42 111 0 l 236 0 z "},"M":{"ha":472,"x_min":0,"x_max":0,"o":"m 310 1042 b 236 1007 281 1042 254 1028 b 164 1042 219 1028 193 1042 b 69 949 113 1042 69 1000 l 69 21 b 92 0 69 10 79 0 b 113 21 103 0 113 10 l 113 949 b 164 1000 113 976 135 1000 b 215 949 192 1000 215 976 l 215 579 b 215 579 215 579 215 579 l 215 21 b 236 0 215 10 225 0 b 257 21 249 0 257 10 l 257 949 b 310 1000 257 976 281 1000 b 361 949 338 1000 361 976 l 361 949 b 361 938 361 944 361 940 l 361 21 b 382 0 361 10 371 0 b 403 21 393 0 403 10 b 403 949 403 31 403 942 b 310 1042 403 1000 361 1042 z "},"N":{"ha":328,"x_min":0,"x_max":0,"o":"m 236 1042 b 215 1019 225 1042 215 1032 l 215 668 l 111 1026 b 88 1042 108 1036 99 1043 b 69 1019 78 1039 69 1031 l 69 21 b 92 0 69 8 79 0 b 113 21 103 0 113 8 l 113 872 l 215 517 l 215 21 b 236 0 215 8 225 0 b 258 21 249 0 258 8 l 258 1019 b 236 1042 258 1032 249 1042 z "},"O":{"ha":331,"x_min":0,"x_max":0,"o":"m 164 -1 l 164 -1 b 258 93 215 -1 258 40 l 258 947 b 164 1040 258 999 215 1040 b 69 947 113 1040 69 999 l 69 93 b 164 -1 69 40 113 -1 z m 164 999 l 164 999 b 215 947 192 999 215 975 l 215 93 b 164 40 215 64 192 40 b 113 93 135 40 113 64 l 113 947 b 164 999 113 975 135 999 z "},"P":{"ha":329,"x_min":0,"x_max":0,"o":"m 164 1043 b 69 950 113 1043 69 1001 l 69 792 l 69 594 l 69 22 b 92 1 69 11 79 1 b 113 22 103 1 113 11 l 113 517 b 164 501 126 507 144 501 b 254 569 207 501 243 531 b 258 581 257 572 258 576 l 258 594 l 258 803 l 258 950 b 164 1043 258 1001 215 1043 z m 164 543 b 113 594 135 543 113 567 l 113 792 l 113 950 b 164 1001 113 978 135 1001 b 215 950 192 1001 215 978 l 215 803 l 215 594 b 164 543 215 567 192 543 z "},"Q":{"ha":332,"x_min":0,"x_max":0,"o":"m 258 949 b 164 1042 258 1000 215 1042 b 69 949 113 1042 69 1000 l 69 94 b 164 0 69 42 113 0 b 214 14 182 0 199 6 l 222 7 b 236 0 226 3 231 0 b 251 7 242 0 247 3 b 251 36 260 14 260 28 l 243 44 b 258 94 253 58 258 76 l 258 949 z m 179 108 b 149 108 171 117 157 117 b 149 79 140 100 140 88 l 182 46 b 164 42 176 43 171 42 b 113 94 136 42 113 65 l 113 949 b 164 1000 113 976 136 1000 b 215 949 193 1000 215 976 l 215 94 b 213 76 215 88 214 82 l 179 108 z "},"R":{"ha":326,"x_min":0,"x_max":0,"o":"m 164 1042 b 69 949 111 1042 69 1000 l 69 21 b 90 0 69 10 79 0 b 111 21 103 0 111 10 l 111 493 l 153 493 l 215 18 b 236 0 217 8 225 0 b 239 0 238 0 238 0 b 257 24 250 1 258 13 l 194 493 b 204 494 199 493 201 493 b 257 579 236 510 257 543 l 257 579 l 257 851 l 257 949 b 164 1042 257 1000 215 1042 z m 215 579 b 189 535 215 561 206 544 l 111 535 l 111 949 b 164 1000 111 976 135 1000 b 215 949 192 1000 215 976 l 215 851 l 215 579 l 215 579 z "},"S":{"ha":328,"x_min":0,"x_max":0,"o":"m 163 0 l 163 0 b 257 94 215 0 257 42 b 257 97 257 96 257 96 l 111 950 b 163 1000 113 978 135 1000 b 215 949 192 1000 215 976 b 236 926 215 936 224 926 b 257 949 247 926 257 936 b 163 1042 257 1000 215 1042 b 69 949 111 1042 69 1000 b 69 944 69 947 69 946 l 215 92 b 163 42 214 65 192 42 b 111 94 135 42 111 65 b 90 115 111 106 101 115 b 69 94 79 115 69 106 b 163 0 69 42 111 0 z "},"T":{"ha":286,"x_min":0,"x_max":0,"o":"m 236 1042 l 49 1042 b 28 1021 36 1042 28 1032 b 49 1000 28 1008 36 1000 l 122 1000 l 122 21 b 143 0 122 10 132 0 b 165 21 156 0 165 10 l 165 1000 l 236 1000 b 257 1021 247 1000 257 1008 b 236 1042 257 1032 247 1042 z "},"U":{"ha":329,"x_min":0,"x_max":0,"o":"m 164 0 l 164 0 b 257 94 215 0 257 42 l 257 1021 b 236 1042 257 1032 249 1042 b 215 1021 225 1042 215 1032 l 215 94 b 164 42 215 65 192 42 b 113 94 135 42 113 65 l 113 1021 b 90 1042 113 1032 103 1042 b 69 1021 79 1042 69 1032 l 69 94 b 164 0 69 42 113 0 z "},"V":{"ha":329,"x_min":0,"x_max":0,"o":"m 165 0 b 186 19 176 0 185 8 l 258 1019 b 239 1042 260 1031 251 1040 b 217 1022 228 1043 218 1033 l 165 313 l 114 1022 b 90 1042 113 1033 103 1043 b 71 1019 79 1040 71 1031 l 144 19 b 165 0 144 8 154 0 z "},"W":{"ha":472,"x_min":0,"x_max":0,"o":"m 382 1042 b 360 1021 369 1042 360 1032 l 360 94 b 308 42 360 65 338 42 b 257 94 281 42 257 65 l 257 1021 b 236 1042 257 1032 247 1042 b 215 1021 225 1042 215 1032 l 215 94 b 164 42 215 65 192 42 b 111 94 135 42 111 65 l 111 1021 b 90 1042 111 1032 103 1042 b 69 1021 79 1042 69 1032 l 69 94 b 164 0 69 42 111 0 b 236 35 193 0 219 14 b 308 0 253 14 279 0 b 403 94 361 0 403 42 l 403 1021 b 382 1042 403 1032 393 1042 z "},"X":{"ha":329,"x_min":0,"x_max":0,"o":"m 185 521 l 257 1018 b 239 1042 258 1029 250 1040 b 215 1024 228 1043 217 1035 l 163 668 l 111 1024 b 88 1042 110 1035 99 1043 b 69 1018 75 1040 68 1029 l 142 521 l 69 24 b 88 0 68 13 75 1 b 90 0 88 0 89 0 b 111 18 100 0 110 8 l 163 375 l 215 18 b 236 0 217 8 225 0 b 239 0 236 0 238 0 b 257 24 250 1 258 13 l 185 521 z "},"Y":{"ha":307,"x_min":0,"x_max":0,"o":"m 218 1040 b 194 1024 206 1043 196 1035 l 142 661 l 90 1024 b 67 1040 89 1035 78 1043 b 49 1017 54 1039 47 1029 l 121 511 l 121 21 b 142 0 121 8 131 0 b 163 21 154 0 163 8 l 163 511 l 236 1017 b 218 1040 238 1029 229 1039 z "},"Z":{"ha":329,"x_min":0,"x_max":0,"o":"m 236 0 l 236 0 b 257 21 247 0 257 10 b 236 42 257 33 247 42 l 115 42 l 257 1018 b 251 1035 257 1024 256 1029 b 236 1042 247 1039 242 1042 l 90 1042 b 69 1021 79 1042 69 1032 b 90 1000 69 1008 79 1000 l 211 1000 l 69 24 b 75 7 68 18 71 13 b 90 0 78 3 85 0 l 236 0 z "},"a":{"ha":329,"x_min":0,"x_max":0,"o":"m 164 0 l 164 0 b 257 93 215 0 257 42 l 257 447 b 164 542 257 499 215 542 b 69 447 113 542 69 499 b 92 426 69 436 79 426 b 113 447 103 426 113 436 b 164 499 113 476 135 499 b 215 447 192 499 215 476 l 215 276 b 164 292 200 286 183 292 b 69 197 113 292 69 250 l 69 93 b 164 0 69 42 113 0 z m 164 249 l 164 249 b 215 197 192 249 215 226 l 215 93 b 164 42 215 65 192 42 b 113 93 135 42 113 65 l 113 197 b 164 249 113 226 135 249 z "},"b":{"ha":329,"x_min":0,"x_max":0,"o":"m 164 0 l 164 0 b 257 93 215 0 257 42 l 257 447 b 164 542 257 499 215 542 b 113 526 144 542 126 536 l 113 1019 b 90 1042 113 1032 103 1042 b 69 1019 79 1042 69 1032 l 69 93 b 164 0 69 42 113 0 z m 113 447 l 113 447 b 164 499 113 476 135 499 b 215 447 192 499 215 476 l 215 93 b 164 42 215 65 192 42 b 113 93 135 42 113 65 z "},"c":{"ha":328,"x_min":0,"x_max":0,"o":"m 163 0 l 163 0 b 257 93 215 0 257 42 b 236 114 257 106 247 114 b 214 93 224 114 214 106 b 163 42 214 65 192 42 b 111 93 135 42 111 65 l 111 447 b 163 499 111 476 135 499 b 214 447 192 499 214 476 b 236 426 214 436 224 426 b 257 447 247 426 257 436 b 163 542 257 499 215 542 b 69 447 111 542 69 499 l 69 93 b 163 0 69 42 111 0 z "},"d":{"ha":329,"x_min":0,"x_max":0,"o":"m 164 0 l 164 0 b 257 93 215 0 257 42 l 257 1019 b 236 1042 257 1032 247 1042 b 215 1019 225 1042 215 1032 l 215 526 b 164 542 200 536 182 542 b 69 447 111 542 69 499 l 69 93 b 164 0 69 42 111 0 z m 164 499 l 164 499 b 215 447 192 499 215 476 l 215 93 b 164 42 215 65 192 42 b 111 93 135 42 111 65 l 111 447 b 164 499 111 476 135 499 z "},"e":{"ha":328,"x_min":0,"x_max":0,"o":"m 236 249 b 258 271 249 249 258 258 l 258 447 b 164 542 258 499 215 542 b 69 447 113 542 69 499 l 69 93 b 164 0 69 42 113 0 b 258 93 215 0 258 42 b 236 114 258 106 249 114 b 215 93 225 114 215 106 b 164 42 215 65 192 42 b 113 93 135 42 113 65 l 113 249 l 236 249 z m 164 499 b 215 447 192 499 215 476 l 215 292 l 113 292 l 113 447 b 164 499 113 476 135 499 z "},"f":{"ha":292,"x_min":0,"x_max":0,"o":"m 235 542 l 111 542 l 111 947 b 163 999 111 975 135 999 b 214 947 192 999 214 975 b 235 926 214 936 224 926 b 257 947 247 926 257 936 b 163 1042 257 999 214 1042 b 69 947 111 1042 69 999 l 69 93 b 163 0 69 42 111 0 b 183 21 175 0 183 8 b 163 42 183 32 175 42 b 111 93 135 42 111 65 l 111 499 l 235 499 b 257 519 247 499 257 508 b 235 542 257 532 247 542 z "},"g":{"ha":326,"x_min":0,"x_max":0,"o":"m 163 542 b 69 447 111 542 69 500 l 69 93 b 163 0 69 42 111 0 b 214 15 182 0 200 6 l 214 -157 b 163 -208 214 -185 192 -208 b 111 -157 135 -208 111 -185 l 111 -104 b 90 -83 111 -93 101 -83 b 69 -104 78 -83 69 -93 l 69 -157 b 163 -250 69 -208 111 -250 b 257 -157 215 -250 257 -208 l 257 93 l 257 140 l 257 447 b 163 542 257 500 215 542 z m 163 42 b 111 93 135 42 111 65 l 111 447 b 163 499 111 476 135 499 b 214 447 192 499 214 476 l 214 140 l 214 93 b 163 42 214 65 192 42 z "},"h":{"ha":329,"x_min":0,"x_max":0,"o":"m 163 542 b 111 526 144 542 126 536 l 111 1019 b 90 1042 111 1032 103 1042 b 69 1019 79 1042 69 1032 l 69 447 l 69 382 l 69 21 b 90 0 69 8 79 0 b 111 21 103 0 111 8 l 111 382 l 111 447 b 163 499 111 476 135 499 b 215 447 192 499 215 476 l 215 21 b 236 0 215 8 224 0 b 257 21 247 0 257 8 l 257 447 b 163 542 257 499 215 542 z "},"i":{"ha":181,"x_min":0,"x_max":0,"o":"m 90 542 b 69 521 79 542 69 532 l 69 21 b 90 0 69 8 79 0 b 111 21 101 0 111 8 l 111 521 b 90 542 111 532 101 542 z m 90 721 b 69 700 79 721 69 711 l 69 628 b 90 607 69 617 79 607 b 111 628 101 607 111 617 l 111 700 b 90 721 111 711 101 721 z "},"j":{"ha":257,"x_min":0,"x_max":0,"o":"m 94 -250 l 94 -250 b 188 -157 146 -250 188 -208 l 188 521 b 167 542 188 532 179 542 b 146 521 156 542 146 532 l 146 -157 b 94 -208 146 -185 122 -208 b 43 -157 65 -208 43 -185 l 43 -104 b 21 -83 43 -93 33 -83 b 0 -104 10 -83 0 -93 l 0 -157 b 94 -250 0 -208 43 -250 z m 167 607 l 167 607 b 188 628 179 607 188 617 l 188 700 b 167 721 188 711 179 721 b 146 700 156 721 146 711 l 146 628 b 167 607 146 617 156 607 z "},"l":{"ha":260,"x_min":0,"x_max":0,"o":"m 164 0 l 164 0 b 185 21 175 0 185 8 b 164 42 185 32 175 42 b 111 93 135 42 111 65 l 111 1019 b 90 1042 111 1032 103 1042 b 69 1019 79 1042 69 1032 l 69 93 b 164 0 69 42 111 0 z "},"k":{"ha":325,"x_min":0,"x_max":0,"o":"m 154 338 l 254 510 b 247 539 260 519 257 532 b 218 531 236 544 224 540 l 111 349 l 111 1019 b 90 1042 111 1032 103 1042 b 69 1019 79 1042 69 1032 l 69 21 b 90 0 69 8 79 0 b 111 21 103 0 111 8 l 111 265 l 126 289 l 215 14 b 236 0 219 6 226 0 b 243 0 238 0 240 0 b 256 26 254 4 260 15 l 154 338 z "},"m":{"ha":472,"x_min":0,"x_max":0,"o":"m 308 542 b 236 507 279 542 253 528 b 163 542 218 528 193 542 b 69 447 111 542 69 499 l 69 21 b 90 0 69 8 79 0 b 111 21 101 0 111 8 l 111 447 b 163 499 111 476 135 499 b 215 447 192 499 215 476 l 215 21 b 236 0 215 8 224 0 b 257 21 247 0 257 8 l 257 447 b 308 499 257 476 281 499 b 360 447 338 499 360 476 l 360 21 b 382 0 360 8 369 0 b 403 21 393 0 403 8 l 403 447 b 308 542 403 499 360 542 z "},"n":{"ha":328,"x_min":0,"x_max":0,"o":"m 236 0 l 236 0 b 258 21 249 0 258 8 l 258 447 b 164 542 258 499 215 542 b 69 447 113 542 69 499 l 69 21 b 92 0 69 8 79 0 b 113 21 103 0 113 8 l 113 447 b 164 499 113 476 135 499 b 215 447 192 499 215 476 l 215 21 b 236 0 215 8 225 0 z "},"o":{"ha":326,"x_min":0,"x_max":0,"o":"m 164 0 l 164 0 b 257 93 215 0 257 42 l 257 447 b 164 542 257 499 215 542 b 69 447 111 542 69 499 l 69 93 b 164 0 69 42 111 0 z m 164 499 l 164 499 b 215 447 192 499 215 476 l 215 93 b 164 42 215 65 192 42 b 111 93 135 42 111 65 l 111 447 b 164 499 111 476 135 499 z "},"p":{"ha":326,"x_min":0,"x_max":0,"o":"m 90 -250 l 90 -250 b 111 -229 103 -250 111 -240 l 111 15 b 163 0 126 6 144 0 b 257 93 215 0 257 42 l 257 447 b 163 542 257 500 215 542 b 69 447 111 542 69 500 l 69 -229 b 90 -250 69 -240 79 -250 z m 111 93 l 111 93 l 111 447 b 163 499 111 476 135 499 b 215 447 192 499 215 476 l 215 93 b 163 42 215 65 192 42 b 111 93 135 42 111 65 z "},"q":{"ha":326,"x_min":0,"x_max":0,"o":"m 236 -250 l 236 -250 b 257 -229 247 -250 257 -240 l 257 447 b 164 542 257 500 215 542 b 69 447 111 542 69 500 l 69 93 b 164 0 69 42 111 0 b 215 15 182 0 200 6 l 215 -229 b 236 -250 215 -240 225 -250 z m 164 499 l 164 499 b 215 447 192 499 215 476 l 215 93 b 164 42 215 65 192 42 b 111 93 135 42 111 65 l 111 447 b 164 499 111 476 135 499 z "},"r":{"ha":306,"x_min":0,"x_max":0,"o":"m 90 0 l 90 0 b 111 21 103 0 111 8 l 111 447 b 163 499 111 476 135 499 b 215 447 192 499 215 476 b 236 426 215 436 224 426 b 257 447 247 426 257 436 b 163 542 257 499 215 542 b 69 447 111 542 69 499 l 69 21 b 90 0 69 8 79 0 z "},"s":{"ha":328,"x_min":0,"x_max":0,"o":"m 164 0 l 164 0 b 258 93 215 0 258 42 b 256 101 258 96 257 99 l 113 451 b 164 499 114 478 136 499 b 215 447 192 499 215 476 b 236 426 215 436 225 426 b 258 447 249 426 258 436 b 164 542 258 499 215 542 b 69 447 113 542 69 499 b 72 439 69 444 71 442 l 215 89 b 164 42 214 63 192 42 b 113 93 135 42 113 65 b 92 114 113 104 103 114 b 69 93 79 114 69 104 b 164 0 69 42 113 0 z "},"t":{"ha":281,"x_min":0,"x_max":0,"o":"m 208 42 b 157 93 181 42 157 65 l 157 340 l 157 447 l 157 499 l 208 499 b 229 521 221 499 229 508 b 208 542 229 532 221 542 l 157 542 l 157 1019 b 136 1042 157 1032 147 1042 b 115 1019 125 1042 115 1032 l 115 542 l 64 542 b 42 521 51 542 42 532 b 64 499 42 508 51 499 l 115 499 l 115 447 l 115 340 l 115 93 b 208 0 115 42 157 0 b 231 21 221 0 231 8 b 208 42 231 32 221 42 z "},"u":{"ha":326,"x_min":0,"x_max":0,"o":"m 163 0 l 163 0 b 257 93 215 0 257 42 l 257 521 b 236 542 257 532 247 542 b 214 521 224 542 214 532 l 214 93 b 163 42 214 65 192 42 b 111 93 135 42 111 65 l 111 521 b 90 542 111 532 101 542 b 69 521 79 542 69 532 l 69 93 b 163 0 69 42 111 0 z "},"v":{"ha":328,"x_min":0,"x_max":0,"o":"m 164 0 l 164 0 b 186 18 175 0 183 7 l 258 517 b 240 542 260 529 251 539 b 217 524 229 543 218 535 l 164 167 l 113 524 b 89 542 111 535 100 543 b 71 517 78 539 69 529 l 143 18 b 164 0 146 7 154 0 z "},"w":{"ha":472,"x_min":0,"x_max":0,"o":"m 382 542 b 361 521 369 542 361 532 l 361 93 b 308 42 361 65 338 42 b 257 93 281 42 257 65 l 257 521 b 236 542 257 532 247 542 b 215 521 225 542 215 532 l 215 93 b 164 42 215 65 192 42 b 111 93 135 42 111 65 l 111 521 b 90 542 111 532 103 542 b 69 521 79 542 69 532 l 69 93 b 164 0 69 42 111 0 b 236 33 193 0 219 13 b 308 0 253 13 279 0 b 403 93 361 0 403 42 l 403 521 b 382 542 403 532 393 542 z "},"x":{"ha":326,"x_min":0,"x_max":0,"o":"m 188 271 l 258 514 b 244 540 263 525 256 538 b 218 526 233 543 222 538 l 167 346 l 114 526 b 88 540 110 538 99 543 b 74 514 76 538 69 525 l 144 271 l 74 26 b 88 0 69 15 76 3 b 93 0 89 0 92 0 b 114 14 103 0 111 6 l 167 194 l 218 14 b 239 0 221 6 229 0 b 244 0 240 0 243 0 b 258 26 256 3 263 15 l 188 271 z "},"y":{"ha":326,"x_min":0,"x_max":0,"o":"m 236 542 b 214 521 224 542 214 532 l 214 197 l 214 93 b 163 42 214 65 192 42 b 111 93 135 42 111 65 l 111 521 b 90 542 111 532 101 542 b 69 521 78 542 69 532 l 69 93 b 163 0 69 42 111 0 b 214 15 182 0 200 6 l 214 -157 b 163 -208 214 -185 192 -208 b 111 -157 135 -208 111 -185 l 111 -104 b 90 -83 111 -93 101 -83 b 69 -104 78 -83 69 -93 l 69 -157 b 163 -250 69 -208 111 -250 b 257 -157 214 -250 257 -208 l 257 93 l 257 197 l 257 521 b 236 542 257 532 247 542 z "},"z":{"ha":328,"x_min":0,"x_max":0,"o":"m 236 0 l 236 0 b 257 21 249 0 257 8 b 236 42 257 32 249 42 l 119 42 l 257 514 b 253 533 258 521 257 528 b 236 542 250 538 243 542 l 92 542 b 69 521 79 542 69 532 b 92 499 69 508 79 499 l 208 499 l 71 26 b 74 8 69 19 71 13 b 92 0 78 3 85 0 l 236 0 z "},"/":{"ha":326,"x_min":0,"x_max":0,"o":"m 92 0 l 92 0 b 113 18 101 0 111 7 l 258 1017 b 240 1042 260 1029 251 1039 b 217 1024 229 1043 218 1035 l 71 24 b 89 0 69 13 78 1 b 92 0 90 0 90 0 z "},".":{"ha":188,"x_min":0,"x_max":0,"o":"m 90 0 l 90 0 b 113 21 103 0 113 10 l 113 93 b 90 114 113 104 103 114 b 69 93 79 114 69 104 l 69 21 b 90 0 69 10 79 0 z "},",":{"ha":188,"x_min":0,"x_max":0,"o":"m 82 1 l 82 1 b 96 10 88 3 93 6 l 139 67 b 135 97 146 76 143 90 b 104 93 125 104 111 101 l 63 35 b 67 6 56 25 57 13 b 82 1 71 1 76 0 z "},"?":{"ha":328,"x_min":0,"x_max":0,"o":"m 164 114 b 143 93 151 114 143 104 l 143 21 b 164 0 143 10 151 0 b 185 21 175 0 185 10 l 185 93 b 164 114 185 104 175 114 z m 257 947 b 257 947 257 947 257 947 b 257 947 257 947 257 947 b 164 1042 257 999 215 1042 b 69 947 111 1042 69 999 b 90 926 69 936 79 926 b 113 947 103 926 113 936 b 164 999 113 976 135 999 b 215 949 192 999 214 976 l 143 524 b 143 521 143 522 143 522 b 143 521 143 521 143 521 l 143 181 b 164 160 143 168 151 160 b 185 181 175 160 185 168 l 185 518 l 257 944 b 257 947 257 944 257 946 b 257 947 257 947 257 947 b 257 947 257 947 257 947 z "},"!":{"ha":182,"x_min":0,"x_max":0,"o":"m 92 114 b 69 93 79 114 69 104 l 69 21 b 92 0 69 10 79 0 b 113 21 103 0 113 10 l 113 93 b 92 114 113 104 103 114 z m 92 1042 b 69 1021 79 1042 69 1032 l 69 181 b 92 160 69 168 79 160 b 113 181 103 160 113 168 l 113 1021 b 92 1042 113 1032 103 1042 z "},"\\":{"ha":326,"x_min":0,"x_max":0,"o":"m 238 -1 l 238 -1 b 242 -1 239 -1 240 -1 b 258 22 253 0 261 11 l 114 1022 b 89 1040 111 1033 101 1042 b 72 1015 78 1038 69 1028 l 217 17 b 238 -1 218 6 228 -1 z "},"[":{"ha":328,"x_min":0,"x_max":0,"o":"m 236 0 l 236 0 b 258 21 249 0 258 10 b 236 42 258 32 249 42 l 113 42 l 113 999 l 236 999 b 258 1021 249 999 258 1008 b 236 1042 258 1032 249 1042 l 92 1042 b 69 1021 79 1042 69 1032 l 69 21 b 92 0 69 10 79 0 l 236 0 z "},"]":{"ha":326,"x_min":0,"x_max":0,"o":"m 236 0 l 236 0 b 257 21 247 0 257 10 l 257 1021 b 236 1042 257 1032 247 1042 l 90 1042 b 69 1021 79 1042 69 1032 b 90 999 69 1008 79 999 l 215 999 l 215 42 l 90 42 b 69 21 79 42 69 32 b 90 0 69 10 79 0 l 236 0 z "},"{":{"ha":326,"x_min":0,"x_max":0,"o":"m 236 0 l 236 0 b 257 21 249 0 257 10 b 236 42 257 32 249 42 b 185 93 208 42 185 65 l 185 447 b 157 514 185 472 175 496 b 150 521 156 517 153 518 b 185 593 171 538 185 564 l 185 947 b 236 999 185 976 208 999 b 257 1021 249 999 257 1008 b 236 1042 257 1032 249 1042 b 143 947 185 1042 143 999 l 143 593 b 128 557 143 579 138 567 b 92 542 118 547 104 542 b 92 542 92 542 92 542 l 92 542 b 92 542 92 542 92 542 b 92 542 92 542 92 542 b 69 521 79 542 69 532 b 92 500 69 508 81 500 b 143 447 119 499 143 476 l 143 93 b 236 0 143 42 185 0 z "},"}":{"ha":326,"x_min":0,"x_max":0,"o":"m 90 0 l 90 0 b 185 93 143 0 185 42 l 185 447 b 200 485 185 461 190 475 b 236 500 210 494 222 500 b 236 500 236 500 236 500 l 236 500 b 257 521 249 500 257 508 b 236 542 257 532 247 542 b 185 593 207 542 185 565 l 185 947 b 90 1042 185 999 143 1042 b 69 1021 79 1042 69 1032 b 90 999 69 1008 79 999 b 143 947 119 999 143 976 l 143 593 b 169 526 143 568 153 544 b 176 521 172 525 175 522 b 143 447 156 503 143 476 l 143 93 b 90 42 143 65 119 42 b 69 21 79 42 69 32 b 90 0 69 10 79 0 z "},"¢":{"ha":326,"x_min":0,"x_max":0,"o":"m 235 171 b 214 150 224 171 214 161 b 163 99 214 121 192 99 b 111 150 135 99 111 121 l 111 504 b 163 556 111 532 135 556 b 214 504 192 556 214 532 b 235 483 214 493 224 483 b 257 504 247 483 257 493 b 183 596 257 549 225 586 l 183 640 b 163 661 183 651 175 661 b 142 640 151 661 142 651 l 142 596 b 69 504 100 586 69 549 l 69 150 b 142 58 69 106 100 68 l 142 21 b 163 0 142 10 151 0 b 183 21 175 0 183 10 l 183 58 b 257 150 225 68 257 106 b 235 171 257 161 247 171 z "},"^":{"ha":328,"x_min":0,"x_max":0,"o":"m 239 767 l 239 767 b 246 767 242 767 243 767 b 260 794 257 771 263 782 l 186 1026 b 167 1042 183 1035 175 1042 b 146 1026 157 1042 149 1035 l 74 794 b 88 767 69 782 76 771 b 114 781 99 764 110 769 l 167 950 l 219 781 b 239 767 222 772 231 767 z "},"<":{"ha":326,"x_min":0,"x_max":0,"o":"m 239 0 l 239 0 b 244 1 240 0 243 0 b 260 28 256 4 263 17 l 114 515 l 260 1014 b 244 1042 263 1026 256 1038 b 218 1026 233 1044 221 1038 l 71 522 b 71 510 69 518 69 514 l 218 15 b 239 0 221 6 229 0 z "},">":{"ha":326,"x_min":0,"x_max":0,"o":"m 93 -1 l 93 -1 b 114 14 101 -1 111 4 l 260 508 b 260 521 261 513 261 517 l 114 1025 b 88 1040 110 1036 99 1043 b 72 1013 75 1036 69 1025 l 218 514 l 72 26 b 86 0 69 15 75 3 b 93 -1 89 -1 90 -1 z "},"\"":{"ha":257,"x_min":0,"x_max":0,"o":"m 163 1042 b 142 1021 151 1042 142 1032 l 142 964 b 163 942 142 951 151 942 b 183 964 175 942 183 951 l 183 1021 b 163 1042 183 1032 175 1042 z m 90 1042 b 69 1021 78 1042 69 1032 l 69 964 b 90 942 69 951 78 942 b 111 964 101 942 111 951 l 111 1021 b 90 1042 111 1032 101 1042 z "},"'":{"ha":181,"x_min":0,"x_max":0,"o":"m 90 1042 b 69 1021 79 1042 69 1032 l 69 964 b 90 942 69 951 79 942 b 111 964 103 942 111 951 l 111 1021 b 90 1042 111 1032 103 1042 z "},"*":{"ha":313,"x_min":0,"x_max":0,"o":"m 229 929 l 199 947 l 229 965 b 238 994 240 972 243 985 b 208 1003 232 1004 218 1008 l 178 985 l 178 1021 b 156 1042 178 1032 168 1042 b 135 1021 144 1042 135 1032 l 135 985 l 104 1003 b 75 994 94 1008 81 1004 b 83 967 69 985 72 972 l 114 947 l 83 929 b 75 901 72 924 69 911 b 93 890 79 894 86 890 b 104 893 97 890 100 892 l 135 911 l 135 875 b 156 854 135 864 144 854 b 178 875 168 854 178 864 l 178 911 l 208 893 b 219 890 211 892 215 890 b 238 901 226 890 233 894 b 229 929 243 911 239 924 z "},":":{"ha":181,"x_min":0,"x_max":0,"o":"m 90 346 b 69 325 79 346 69 336 l 69 253 b 90 232 69 242 79 232 b 111 253 103 232 111 242 l 111 325 b 90 346 111 336 103 346 z m 90 532 b 69 511 79 532 69 522 l 69 439 b 90 418 69 428 79 418 b 111 439 103 418 111 428 l 111 511 b 90 532 111 522 103 532 z "},";":{"ha":257,"x_min":0,"x_max":0,"o":"m 158 89 b 128 89 150 97 136 97 l 78 38 b 78 8 69 29 69 17 b 107 8 86 0 100 0 l 158 58 b 158 89 167 67 167 81 z m 142 292 b 121 271 131 292 121 282 l 121 199 b 142 178 121 188 131 178 b 163 199 154 178 163 188 l 163 271 b 142 292 163 282 154 292 z "},"=":{"ha":329,"x_min":0,"x_max":0,"o":"m 236 343 l 90 343 b 69 322 79 343 69 333 b 90 300 69 310 79 300 l 236 300 b 257 322 247 300 257 310 b 236 343 257 333 247 343 z m 90 374 l 236 374 b 257 394 247 374 257 383 b 236 415 257 406 247 415 l 90 415 b 69 394 79 415 69 406 b 90 374 69 383 79 374 z "},"-":{"ha":329,"x_min":0,"x_max":0,"o":"m 236 333 l 236 333 b 258 354 249 333 258 342 b 236 375 258 365 249 375 l 92 375 b 69 354 79 375 69 365 b 92 333 69 342 79 333 l 236 333 z "},"+":{"ha":329,"x_min":0,"x_max":0,"o":"m 236 389 l 185 389 l 185 440 b 164 461 185 453 175 461 b 143 440 153 461 143 453 l 143 389 l 92 389 b 69 368 79 389 69 379 b 92 347 69 356 79 347 l 143 347 l 143 294 b 164 274 143 283 153 274 b 185 294 175 274 185 283 l 185 347 l 236 347 b 258 368 249 347 258 356 b 236 389 258 379 249 389 z "},"©":{"ha":1157,"x_min":0,"x_max":0,"o":""},"±":{"ha":1157,"x_min":0,"x_max":0,"o":""},"–":{"ha":1157,"x_min":0,"x_max":0,"o":""},"@":{"ha":492,"x_min":0,"x_max":0,"o":"m 400 490 b 379 468 389 490 379 481 l 379 100 b 365 53 379 79 375 64 b 335 42 357 46 347 42 l 164 42 b 111 93 135 42 111 65 l 111 701 b 164 753 111 731 135 753 l 247 753 b 300 701 276 753 300 731 l 300 594 b 247 611 285 604 267 611 b 154 517 196 611 154 568 l 154 517 b 154 500 154 511 154 506 l 154 163 b 247 68 154 110 196 68 b 342 163 300 68 342 110 l 342 701 b 247 796 342 753 300 796 l 164 796 b 69 701 111 796 69 753 l 69 93 b 164 0 69 42 111 0 l 335 0 b 394 24 358 0 379 8 b 422 100 413 42 422 68 l 422 468 b 400 490 422 481 413 490 z m 300 163 b 247 110 300 133 276 110 b 196 163 219 110 196 133 l 196 410 b 196 517 196 410 196 514 b 196 517 196 517 196 517 b 247 568 196 544 219 568 b 300 517 276 568 300 544 l 300 163 z "},"`":{"ha":231,"x_min":0,"x_max":0,"o":"m 133 939 b 149 943 138 938 144 939 b 153 972 158 950 160 963 l 110 1031 b 81 1035 104 1039 90 1042 b 76 1006 71 1028 69 1014 l 119 947 b 133 939 122 943 128 940 l 133 939 z "},"_":{"ha":328,"x_min":0,"x_max":0,"o":"m 236 0 l 236 0 b 257 22 247 0 257 10 b 236 43 257 33 247 43 l 90 43 b 69 22 79 43 69 33 b 90 0 69 10 79 0 l 236 0 z "},"⁄":{"ha":328,"x_min":0,"x_max":0,"o":"m 92 0 l 92 0 b 113 18 101 0 111 7 l 258 1017 b 240 1042 260 1029 251 1039 b 217 1024 229 1043 218 1035 l 71 24 b 89 0 69 13 78 1 b 92 0 90 0 90 0 z "},"¿":{"ha":328,"x_min":0,"x_max":0,"o":"m 164 928 b 185 949 175 928 185 938 l 185 1021 b 164 1042 185 1032 175 1042 b 143 1021 151 1042 143 1032 l 143 949 b 164 928 143 938 151 928 z m 69 93 l 69 93 l 69 93 b 164 0 69 42 111 0 b 257 93 215 0 257 42 b 236 115 257 106 247 115 b 215 93 225 115 215 106 b 164 42 215 65 192 42 b 113 93 136 42 113 64 l 185 517 b 185 521 185 518 185 519 b 185 521 185 521 185 521 l 185 861 b 164 882 185 872 175 882 b 143 861 151 882 143 872 l 143 522 l 69 97 b 69 93 69 96 69 94 b 69 93 69 93 69 93 b 69 93 69 93 69 93 z "},"|":{"ha":181,"x_min":0,"x_max":0,"o":"m 90 -51 l 90 -51 b 111 -31 103 -51 111 -42 l 111 1068 b 90 1089 111 1081 103 1089 b 69 1068 79 1089 69 1081 l 69 -31 b 90 -51 69 -42 79 -51 z "},"…":{"ha":563,"x_min":0,"x_max":0,"o":"m 90 0 l 90 0 b 113 21 103 0 113 10 l 113 93 b 90 114 113 104 103 114 b 69 93 79 114 69 104 l 69 21 b 90 0 69 10 79 0 z m 278 0 l 278 0 b 300 21 290 0 300 10 l 300 93 b 278 114 300 104 290 114 b 257 93 267 114 257 104 l 257 21 b 278 0 257 10 267 0 z m 465 0 l 465 0 b 488 21 478 0 488 10 l 488 93 b 465 114 488 104 478 114 b 444 93 454 114 444 104 l 444 21 b 465 0 444 10 454 0 z "},"—":{"ha":472,"x_min":0,"x_max":0,"o":"m 382 500 l 382 500 b 403 521 393 500 403 508 b 382 542 403 532 393 542 l 92 542 b 69 521 79 542 69 532 b 92 500 69 508 79 500 l 382 500 z "},"•":{"ha":257,"x_min":0,"x_max":0,"o":"m 126 463 l 126 463 b 185 521 158 463 185 489 b 126 578 185 553 158 578 b 69 521 94 578 69 553 b 126 463 69 489 94 463 z m 126 536 l 126 536 b 142 521 135 536 142 529 b 126 504 142 511 135 504 b 111 521 118 504 111 511 b 126 536 111 529 118 536 z "},"~":{"ha":528,"x_min":0,"x_max":0,"o":"m 363 307 l 363 307 b 457 401 414 307 457 349 b 363 494 457 453 414 494 b 342 474 351 494 342 486 b 363 453 342 463 351 453 b 414 401 390 453 414 429 b 369 350 414 375 394 353 l 176 490 b 164 494 172 493 168 494 b 69 401 111 494 69 453 b 164 307 69 350 111 307 b 185 328 175 307 185 317 b 164 350 185 340 175 350 b 111 401 135 350 111 372 b 157 453 111 428 132 449 l 350 311 b 363 307 354 308 358 307 z "},"¡":{"ha":182,"x_min":0,"x_max":0,"o":"m 92 1042 l 92 1042 b 69 1021 79 1042 69 1032 l 69 949 b 92 928 69 938 79 928 b 113 949 103 928 113 938 l 113 1021 b 92 1042 113 1032 103 1042 z m 92 882 l 92 882 b 69 861 79 882 69 872 l 69 21 b 92 0 69 10 79 0 b 113 21 103 0 113 10 l 113 861 b 92 882 113 872 103 882 z "},"°":{"ha":292,"x_min":0,"x_max":0,"o":"m 146 888 l 146 888 b 224 964 189 888 224 922 b 146 1042 224 1007 189 1042 b 69 964 104 1042 69 1007 b 146 888 69 922 104 888 z m 146 1000 l 146 1000 b 182 964 165 1000 182 983 b 146 929 182 944 165 929 b 111 964 126 929 111 944 b 146 1000 111 983 126 1000 z "},"œ":{"ha":472,"x_min":0,"x_max":0,"o":"m 381 250 b 401 271 393 250 401 260 l 401 449 b 308 542 401 500 360 542 b 235 508 279 542 253 529 b 163 542 218 529 192 542 b 69 449 111 542 69 500 l 69 94 b 163 0 69 43 111 0 b 235 35 192 0 218 14 b 308 0 253 14 279 0 b 401 94 360 0 401 43 b 381 115 401 106 393 115 b 360 94 369 115 360 106 b 308 43 360 65 336 43 b 257 94 279 43 257 65 l 257 250 l 381 250 z m 257 449 b 308 500 257 476 279 500 b 360 449 336 500 360 476 l 360 293 l 257 293 l 257 449 z m 214 94 l 214 94 b 163 43 214 65 192 43 b 111 94 135 43 111 65 l 111 449 b 163 500 111 476 135 500 b 214 449 192 500 214 476 l 214 94 z "},"æ":{"ha":474,"x_min":0,"x_max":0,"o":"m 382 250 b 404 271 394 250 404 260 l 404 449 b 310 542 404 500 361 542 b 238 507 281 542 254 529 b 164 542 219 529 193 542 b 69 449 113 542 69 500 b 92 428 69 436 79 428 b 113 449 103 428 113 436 b 164 500 113 476 135 500 b 215 449 192 500 215 476 l 215 276 b 164 293 200 286 183 293 b 69 199 113 293 69 250 l 69 94 b 164 0 69 43 113 0 b 238 36 193 0 219 14 b 310 0 254 14 281 0 b 404 94 361 0 404 43 b 382 115 404 106 394 115 b 361 94 371 115 361 106 b 310 43 361 65 339 43 b 258 94 282 43 258 65 l 258 250 l 382 250 z m 258 449 b 310 500 258 476 282 500 b 361 449 339 500 361 476 l 361 293 l 258 293 l 258 449 z m 215 94 b 164 43 215 65 192 43 b 113 94 135 43 113 65 l 113 199 b 164 250 113 226 135 250 b 215 199 192 250 215 226 l 215 94 z "},"‘":{"ha":181,"x_min":0,"x_max":0,"o":"m 90 1042 b 69 1021 78 1042 69 1032 l 69 964 b 90 942 69 951 78 942 b 111 964 101 942 111 951 l 111 1021 b 90 1042 111 1032 101 1042 z "},"’":{"ha":181,"x_min":0,"x_max":0,"o":"m 90 1042 b 69 1021 78 1042 69 1032 l 69 964 b 90 942 69 951 78 942 b 111 964 101 942 111 951 l 111 1021 b 90 1042 111 1032 101 1042 z "},"“":{"ha":250,"x_min":0,"x_max":0,"o":"m 163 1042 b 142 1021 151 1042 142 1032 l 142 964 b 163 942 142 951 151 942 b 183 964 175 942 183 951 l 183 1021 b 163 1042 183 1032 175 1042 z m 90 1042 b 69 1021 78 1042 69 1032 l 69 964 b 90 942 69 951 78 942 b 111 964 101 942 111 951 l 111 1021 b 90 1042 111 1032 101 1042 z "},"”":{"ha":256,"x_min":0,"x_max":0,"o":"m 163 1042 b 142 1021 151 1042 142 1032 l 142 964 b 163 942 142 951 151 942 b 183 964 175 942 183 951 l 183 1021 b 163 1042 183 1032 175 1042 z m 90 1042 b 69 1021 78 1042 69 1032 l 69 964 b 90 942 69 951 78 942 b 111 964 101 942 111 951 l 111 1021 b 90 1042 111 1032 101 1042 z "},"ð":{"ha":331,"x_min":0,"x_max":0,"o":"m 257 521 b 257 526 257 524 257 525 b 257 526 257 526 257 526 l 215 668 l 250 700 b 251 729 258 708 260 721 b 222 731 244 739 231 739 l 203 713 l 111 1026 b 85 1042 108 1038 96 1044 b 71 1015 74 1038 67 1026 l 168 681 l 126 643 b 125 614 118 636 117 622 b 140 607 129 610 135 607 b 154 613 146 607 151 608 l 181 636 l 208 542 l 164 542 b 163 542 163 542 163 542 b 69 449 111 542 69 500 l 69 94 b 164 0 69 42 111 0 b 257 94 215 0 257 42 l 257 521 b 257 521 257 521 257 521 b 257 521 257 521 257 521 z m 164 43 b 111 94 135 43 111 65 l 111 449 b 164 500 111 476 135 500 b 164 500 164 500 164 500 l 215 500 l 215 94 b 164 43 215 65 192 43 z "},"ø":{"ha":326,"x_min":0,"x_max":0,"o":"m 244 497 l 250 517 b 240 535 251 525 247 532 b 222 525 233 538 225 532 l 222 522 b 164 542 206 535 186 542 b 69 449 113 542 69 500 l 69 94 b 83 46 69 76 75 60 l 78 24 b 88 7 75 17 79 8 b 90 6 89 7 89 6 b 104 17 97 6 103 10 l 106 21 b 164 0 122 8 142 0 b 257 94 215 0 257 43 l 257 449 b 244 497 257 467 253 482 z m 113 449 b 164 500 113 476 135 500 b 208 474 182 500 199 490 l 113 143 l 113 449 z m 164 43 b 119 68 144 43 128 53 l 215 399 l 215 94 b 164 43 215 65 192 43 z "},"ç":{"ha":328,"x_min":0,"x_max":0,"o":"m 238 113 b 217 92 226 113 217 104 b 165 40 217 64 193 40 b 113 92 136 40 113 64 l 113 446 b 165 497 113 475 136 497 b 217 446 193 497 217 475 b 238 425 217 435 226 425 b 258 446 249 425 258 435 b 165 540 258 499 217 540 b 71 446 113 540 71 499 l 71 92 b 154 -1 71 44 107 4 l 139 -39 l 139 -39 l 139 -39 b 139 -42 139 -40 139 -40 b 139 -44 139 -43 139 -43 b 139 -44 139 -44 139 -44 b 139 -49 139 -46 139 -47 b 139 -50 139 -49 139 -50 b 142 -53 140 -51 140 -51 b 143 -54 142 -53 142 -54 b 144 -56 143 -54 143 -56 b 147 -57 144 -56 146 -57 b 147 -57 147 -57 147 -57 b 153 -58 149 -58 151 -58 b 153 -58 153 -58 153 -58 b 169 -78 163 -58 169 -67 b 153 -96 169 -87 163 -96 b 139 -110 144 -96 139 -103 b 153 -124 139 -118 144 -124 b 197 -78 178 -124 197 -103 b 171 -35 197 -58 188 -42 l 185 0 b 258 92 228 10 258 47 b 238 113 258 104 249 113 z "},"ñ":{"ha":328,"x_min":0,"x_max":0,"o":"m 164 542 b 71 449 113 542 71 500 l 71 21 b 92 0 71 10 81 0 b 113 21 103 0 113 10 l 113 449 b 164 500 113 476 136 500 b 215 449 193 500 215 476 l 215 21 b 238 0 215 10 225 0 b 258 21 249 0 258 10 l 258 449 b 164 542 258 500 217 542 z m 131 626 b 144 640 138 626 144 632 b 131 654 144 649 138 654 b 118 667 124 654 118 660 b 126 678 118 672 121 676 l 190 629 b 199 626 193 628 196 626 b 239 667 221 626 239 644 b 199 707 239 689 221 707 b 185 693 190 707 185 701 b 199 679 185 685 190 679 b 211 667 206 679 211 674 b 203 656 211 661 207 657 l 139 704 b 131 707 136 706 133 707 b 89 667 108 707 89 689 b 131 626 89 644 108 626 z "},"ÿ":{"ha":326,"x_min":0,"x_max":0,"o":"m 235 543 b 214 521 222 543 214 533 l 214 199 l 214 94 b 161 43 214 65 190 43 b 110 94 133 43 110 65 l 110 521 b 89 543 110 533 100 543 b 68 521 78 543 68 533 l 68 94 b 161 0 68 43 110 0 b 214 17 181 0 199 7 l 214 -156 b 161 -207 214 -183 190 -207 b 110 -156 133 -207 110 -183 l 110 -104 b 89 -82 110 -92 100 -82 b 68 -104 78 -82 68 -92 l 68 -156 b 161 -249 68 -207 110 -249 b 256 -156 214 -249 256 -207 l 256 94 l 256 199 l 256 521 b 235 543 256 533 246 543 z m 121 621 b 143 643 133 621 143 631 l 143 692 b 121 713 143 703 133 713 b 100 692 110 713 100 703 l 100 643 b 121 621 100 631 110 621 z m 201 621 b 224 643 214 621 224 631 l 224 692 b 201 713 224 703 214 713 b 181 692 190 713 181 703 l 181 643 b 201 621 181 631 190 621 z "},"ý":{"ha":326,"x_min":0,"x_max":0,"o":"m 235 543 b 214 521 224 543 214 533 l 214 199 l 214 94 b 163 43 214 65 192 43 b 111 94 135 43 111 65 l 111 521 b 90 543 111 533 101 543 b 69 521 78 543 69 533 l 69 94 b 163 0 69 43 111 0 b 214 17 182 0 200 7 l 214 -156 b 163 -207 214 -183 192 -207 b 111 -156 135 -207 111 -183 l 111 -104 b 90 -82 111 -92 101 -82 b 69 -104 78 -82 69 -92 l 69 -156 b 163 -249 69 -207 111 -249 b 257 -156 214 -249 257 -207 l 257 94 l 257 199 l 257 521 b 235 543 257 533 247 543 z m 138 619 b 153 625 143 619 149 621 l 203 676 b 203 706 211 685 211 697 b 174 706 194 714 182 714 l 122 656 b 122 625 114 647 114 633 b 138 619 126 621 132 619 z "},"î":{"ha":236,"x_min":0,"x_max":0,"o":"m 118 542 b 97 521 107 542 97 533 l 97 21 b 118 0 97 10 107 0 b 139 21 131 0 139 10 l 139 521 b 118 542 139 533 131 542 z m 175 656 l 135 704 b 103 704 126 714 110 714 l 63 656 b 65 626 54 647 56 633 b 94 629 74 618 88 619 l 118 658 l 143 629 b 158 621 147 624 153 621 b 172 626 164 621 168 622 b 175 656 181 633 182 647 z "},"í":{"ha":236,"x_min":0,"x_max":0,"o":"m 118 542 b 97 521 107 542 97 533 l 97 21 b 118 0 97 10 107 0 b 139 21 129 0 139 10 l 139 521 b 118 542 139 533 129 542 z m 183 706 b 154 706 175 714 163 714 l 103 656 b 103 625 94 647 94 633 b 118 619 107 621 113 619 b 133 625 124 619 129 621 l 183 676 b 183 706 192 685 192 697 z "},"ï":{"ha":236,"x_min":0,"x_max":0,"o":"m 118 542 b 97 521 107 542 97 533 l 97 21 b 118 0 97 10 107 0 b 139 21 129 0 139 10 l 139 521 b 118 542 139 533 129 542 z m 99 690 b 78 713 99 703 89 713 b 57 690 65 713 57 703 l 57 642 b 78 621 57 631 65 621 b 99 642 89 621 99 631 l 99 690 z m 158 713 b 138 690 146 713 138 703 l 138 642 b 158 621 138 631 146 621 b 179 642 169 621 179 631 l 179 690 b 158 713 179 703 169 713 z "},"ì":{"ha":236,"x_min":0,"x_max":0,"o":"m 118 542 b 97 521 107 542 97 533 l 97 21 b 118 0 97 10 107 0 b 139 21 131 0 139 10 l 139 521 b 118 542 139 533 131 542 z m 122 619 b 138 625 128 619 133 621 b 138 656 146 633 146 647 l 86 706 b 57 706 78 714 65 714 b 57 676 49 697 49 685 l 107 625 b 122 619 111 621 117 619 z "},"ê":{"ha":328,"x_min":0,"x_max":0,"o":"m 236 250 b 257 271 247 250 257 260 l 257 449 b 163 542 257 500 215 542 b 69 449 111 542 69 500 l 69 94 b 163 0 69 43 111 0 b 257 94 215 0 257 43 b 236 115 257 106 247 115 b 215 94 224 115 215 106 b 163 43 215 65 192 43 b 111 94 135 43 111 65 l 111 250 l 236 250 z m 111 449 b 163 500 111 476 135 500 b 215 449 192 500 215 476 l 215 293 l 111 293 l 111 449 z m 139 629 l 163 658 l 188 629 b 203 621 192 624 197 621 b 217 626 208 621 213 622 b 219 656 225 633 226 647 l 179 704 b 147 704 171 714 154 714 l 106 656 b 108 626 99 647 100 633 b 139 629 118 618 132 619 z "},"ë":{"ha":328,"x_min":0,"x_max":0,"o":"m 236 250 b 257 271 247 250 257 260 l 257 449 b 163 542 257 500 215 542 b 69 449 111 542 69 500 l 69 94 b 164 0 69 43 111 0 b 257 94 215 0 257 43 b 236 115 257 106 247 115 b 215 94 224 115 215 106 b 164 43 215 65 192 43 b 111 94 135 43 111 65 l 111 250 l 236 250 z m 111 449 b 163 500 111 476 135 500 b 215 449 192 500 215 476 l 215 293 l 111 293 l 111 449 z m 122 621 b 143 643 135 621 143 631 l 143 690 b 122 713 143 703 135 713 b 101 690 111 713 101 703 l 101 643 b 122 621 101 631 111 621 z m 203 621 b 225 643 215 621 225 631 l 225 690 b 203 713 225 703 215 713 b 182 690 192 713 182 703 l 182 643 b 203 621 182 631 192 621 z "},"é":{"ha":328,"x_min":0,"x_max":0,"o":"m 236 250 b 257 271 249 250 257 260 l 257 449 b 164 542 257 500 215 542 b 69 449 113 542 69 500 l 69 94 b 164 0 69 43 113 0 b 257 94 215 0 257 43 b 236 115 257 106 249 115 b 215 94 225 115 215 106 b 164 43 215 65 192 43 b 113 94 135 43 113 65 l 113 250 l 236 250 z m 113 449 b 164 500 113 476 135 500 b 215 449 192 500 215 476 l 215 293 l 113 293 l 113 449 z m 138 619 b 153 625 143 619 149 621 l 204 676 b 204 706 213 685 213 697 b 174 706 196 714 182 714 l 124 656 b 124 625 115 647 115 633 b 138 619 128 621 132 619 z "},"è":{"ha":328,"x_min":0,"x_max":0,"o":"m 236 250 b 257 271 249 250 257 260 l 257 449 b 164 542 257 500 215 542 b 69 449 113 542 69 500 l 69 94 b 164 0 69 43 113 0 b 257 94 215 0 257 43 b 236 115 257 106 249 115 b 215 94 225 115 215 106 b 164 43 215 65 192 43 b 113 94 135 43 113 65 l 113 250 l 236 250 z m 113 449 b 164 500 113 476 135 500 b 215 449 192 500 215 476 l 215 293 l 113 293 l 113 449 z m 174 625 b 189 619 178 621 183 619 b 204 625 194 619 200 621 b 204 656 213 633 213 647 l 153 706 b 124 706 144 714 132 714 b 124 676 115 697 115 685 l 174 625 z "},"á":{"ha":329,"x_min":0,"x_max":0,"o":"m 164 542 b 69 449 111 542 69 500 b 90 428 69 436 79 428 b 111 449 103 428 111 436 b 164 500 111 476 135 500 b 215 449 192 500 215 476 l 215 276 b 164 293 200 286 182 293 b 69 199 111 293 69 250 l 69 94 b 164 0 69 43 111 0 b 257 94 215 0 257 43 l 257 449 b 164 542 257 500 215 542 z m 215 94 b 164 43 215 65 192 43 b 111 94 135 43 111 65 l 111 199 b 164 250 111 228 135 250 b 215 199 192 250 215 228 l 215 94 z m 138 619 b 153 625 143 619 149 621 l 203 676 b 203 706 211 685 211 697 b 174 706 194 714 182 714 l 122 656 b 122 625 114 647 114 633 b 138 619 126 621 132 619 z "},"à":{"ha":329,"x_min":0,"x_max":0,"o":"m 164 542 b 69 449 113 542 69 500 b 90 428 69 436 79 428 b 113 449 103 428 113 436 b 164 500 113 476 135 500 b 215 449 192 500 215 476 l 215 276 b 164 293 200 286 183 293 b 69 199 113 293 69 250 l 69 94 b 164 0 69 43 113 0 b 257 94 215 0 257 43 l 257 449 b 164 542 257 500 215 542 z m 215 94 b 164 43 215 65 192 43 b 113 94 135 43 113 65 l 113 199 b 164 250 113 228 135 250 b 215 199 192 250 215 228 l 215 94 z m 174 625 b 189 619 178 621 183 619 b 204 625 194 619 200 621 b 204 656 213 633 213 647 l 153 706 b 124 706 144 714 132 714 b 124 676 115 697 115 685 l 174 625 z "},"ä":{"ha":329,"x_min":0,"x_max":0,"o":"m 164 542 b 69 449 113 542 69 500 b 92 428 69 436 79 428 b 113 449 103 428 113 436 b 164 500 113 476 136 500 b 215 449 193 500 215 476 l 215 276 b 164 293 201 286 183 293 b 69 199 113 293 69 250 l 69 94 b 164 0 69 43 113 0 b 258 94 215 0 258 43 l 258 449 b 164 542 258 500 215 542 z m 215 94 b 164 43 215 65 193 43 b 113 94 136 43 113 65 l 113 199 b 164 250 113 228 136 250 b 215 199 193 250 215 228 l 215 94 z m 124 621 b 144 643 135 621 144 631 l 144 690 b 124 713 144 703 135 713 b 103 690 111 713 103 703 l 103 643 b 124 621 103 631 111 621 z m 204 621 b 225 643 215 621 225 631 l 225 690 b 204 713 225 703 215 713 b 183 690 192 713 183 703 l 183 643 b 204 621 183 631 192 621 z "},"â":{"ha":329,"x_min":0,"x_max":0,"o":"m 164 542 b 69 449 113 542 69 500 b 92 428 69 436 79 428 b 113 449 103 428 113 436 b 164 500 113 476 135 500 b 215 449 192 500 215 476 l 215 276 b 164 293 200 286 183 293 b 69 199 113 293 69 250 l 69 94 b 164 0 69 43 113 0 b 258 94 215 0 258 43 l 258 449 b 164 542 258 500 215 542 z m 215 94 b 164 43 215 65 192 43 b 113 94 135 43 113 65 l 113 199 b 164 250 113 228 135 250 b 215 199 192 250 215 228 l 215 94 z m 139 629 l 164 658 l 188 629 b 204 621 192 624 197 621 b 217 626 208 621 214 622 b 219 656 226 633 228 647 l 179 704 b 147 704 172 714 156 714 l 107 656 b 110 626 100 647 100 633 b 139 629 118 618 132 619 z "},"å":{"ha":329,"x_min":0,"x_max":0,"o":"m 164 542 b 69 449 111 542 69 500 b 90 428 69 436 79 428 b 113 449 103 428 113 436 b 164 500 113 476 135 500 b 215 449 192 500 215 476 l 215 276 b 164 293 200 286 182 293 b 69 199 111 293 69 250 l 69 94 b 164 0 69 43 113 0 b 257 94 215 0 257 43 l 257 449 b 164 542 257 500 215 542 z m 215 94 b 164 43 215 65 192 43 b 113 94 135 43 113 65 l 113 199 b 164 250 113 228 135 250 b 215 199 192 250 215 228 l 215 94 z m 164 626 b 213 675 190 626 213 649 b 164 724 213 701 190 724 b 114 675 136 724 114 701 b 164 626 114 649 136 626 z m 164 696 b 183 675 175 696 183 686 b 164 654 183 664 175 654 b 143 675 151 654 143 664 b 164 696 143 686 151 696 z "},"ã":{"ha":329,"x_min":0,"x_max":0,"o":"m 164 542 b 69 449 111 542 69 500 b 90 428 69 436 79 428 b 111 449 103 428 111 436 b 164 500 111 476 135 500 b 215 449 192 500 215 476 l 215 276 b 164 293 200 286 182 293 b 69 199 111 293 69 250 l 69 94 b 164 0 69 43 111 0 b 257 94 215 0 257 43 l 257 449 b 164 542 257 500 215 542 z m 215 94 b 164 43 215 65 192 43 b 111 94 135 43 111 65 l 111 199 b 164 250 111 228 135 250 b 215 199 192 250 215 228 l 215 94 z m 129 626 b 143 640 136 626 143 632 b 129 654 143 649 136 654 b 117 667 122 654 117 660 b 125 678 117 672 119 676 l 189 629 b 197 626 192 628 194 626 b 238 667 219 626 238 644 b 197 707 238 689 219 707 b 183 693 190 707 183 701 b 197 679 183 685 190 679 b 210 667 204 679 210 674 b 201 656 210 661 207 657 l 138 704 b 129 707 135 706 132 707 b 89 667 107 707 89 689 b 129 626 89 644 107 626 z "},"ó":{"ha":326,"x_min":0,"x_max":0,"o":"m 164 542 b 71 449 113 542 71 500 l 71 94 b 164 0 71 43 113 0 b 258 94 217 0 258 43 l 258 449 b 164 542 258 500 217 542 z m 215 94 b 164 43 215 65 193 43 b 113 94 136 43 113 65 l 113 449 b 164 500 113 476 136 500 b 215 449 193 500 215 476 l 215 94 z m 139 619 b 154 625 144 619 150 621 l 204 676 b 204 706 213 685 213 697 b 175 706 196 714 182 714 l 124 656 b 124 625 115 647 115 633 b 139 619 128 621 133 619 z "},"ò":{"ha":326,"x_min":0,"x_max":0,"o":"m 164 542 b 69 449 113 542 69 500 l 69 94 b 164 0 69 43 113 0 b 257 94 215 0 257 43 l 257 449 b 164 542 257 500 215 542 z m 215 94 b 164 43 215 65 192 43 b 113 94 135 43 113 65 l 113 449 b 164 500 113 476 135 500 b 215 449 192 500 215 476 l 215 94 z m 174 625 b 189 619 178 621 183 619 b 204 625 194 619 200 621 b 204 656 213 633 213 647 l 153 706 b 124 706 144 714 132 714 b 124 676 115 697 115 685 l 174 625 z "},"ö":{"ha":326,"x_min":0,"x_max":0,"o":"m 164 542 b 69 449 111 542 69 500 l 69 94 b 164 0 69 43 111 0 b 257 94 215 0 257 43 l 257 449 b 164 542 257 500 215 542 z m 215 94 b 164 43 215 65 192 43 b 111 94 135 43 111 65 l 111 449 b 164 500 111 476 135 500 b 215 449 192 500 215 476 l 215 94 z m 122 621 b 143 643 135 621 143 631 l 143 690 b 122 713 143 703 135 713 b 101 690 111 713 101 703 l 101 643 b 122 621 101 631 111 621 z m 203 621 b 225 643 215 621 225 631 l 225 690 b 203 713 225 703 215 713 b 182 690 192 713 182 703 l 182 643 b 203 621 182 631 192 621 z "},"ô":{"ha":326,"x_min":0,"x_max":0,"o":"m 164 542 b 69 449 111 542 69 500 l 69 94 b 164 0 69 43 111 0 b 257 94 215 0 257 43 l 257 449 b 164 542 257 500 215 542 z m 215 94 b 164 43 215 65 192 43 b 113 94 135 43 113 65 l 113 449 b 164 500 113 476 135 500 b 215 449 192 500 215 476 l 215 94 z m 139 629 l 164 658 l 188 629 b 204 621 192 624 197 621 b 217 626 208 621 213 622 b 219 656 226 633 228 647 l 179 704 b 147 704 171 714 156 714 l 107 656 b 110 626 99 647 100 633 b 139 629 118 618 132 619 z "},"õ":{"ha":326,"x_min":0,"x_max":0,"o":"m 163 542 b 69 449 111 542 69 500 l 69 94 b 163 0 69 43 111 0 b 257 94 215 0 257 43 l 257 449 b 163 542 257 500 215 542 z m 214 94 b 163 43 214 65 192 43 b 111 94 135 43 111 65 l 111 449 b 163 500 111 476 135 500 b 214 449 192 500 214 476 l 214 94 z m 128 626 b 143 640 136 626 143 632 b 128 654 143 649 136 654 b 117 667 122 654 117 660 b 125 678 117 672 119 676 l 189 629 b 197 626 190 628 194 626 b 238 667 219 626 238 644 b 197 707 238 689 219 707 b 183 693 189 707 183 701 b 197 679 183 685 189 679 b 210 667 204 679 210 674 b 201 656 210 661 206 657 l 138 704 b 128 707 135 706 132 707 b 88 667 106 707 88 689 b 128 626 88 644 106 626 z "},"ü":{"ha":326,"x_min":0,"x_max":0,"o":"m 236 542 b 214 521 224 542 214 533 l 214 94 b 163 43 214 65 192 43 b 111 94 135 43 111 65 l 111 521 b 90 542 111 533 101 542 b 69 521 78 542 69 533 l 69 94 b 163 0 69 43 111 0 b 257 94 214 0 257 43 l 257 521 b 236 542 257 533 247 542 z m 122 621 b 143 643 133 621 143 631 l 143 690 b 122 713 143 703 133 713 b 101 690 111 713 101 703 l 101 643 b 122 621 101 631 111 621 z m 203 621 b 224 643 214 621 224 631 l 224 690 b 203 713 224 703 214 713 b 182 690 192 713 182 703 l 182 643 b 203 621 182 631 192 621 z "},"û":{"ha":326,"x_min":0,"x_max":0,"o":"m 235 542 b 214 521 224 542 214 533 l 214 94 b 163 43 214 65 192 43 b 111 94 135 43 111 65 l 111 521 b 90 542 111 533 101 542 b 68 521 78 542 68 533 l 68 94 b 163 0 68 43 111 0 b 257 94 214 0 257 43 l 257 521 b 235 542 257 533 247 542 z m 138 629 l 163 658 l 186 629 b 203 621 190 624 197 621 b 217 626 207 621 213 622 b 219 656 225 633 226 647 l 179 704 b 146 704 171 714 154 714 l 106 656 b 108 626 99 647 100 633 b 138 629 118 618 131 619 z "},"ú":{"ha":326,"x_min":0,"x_max":0,"o":"m 236 542 b 214 521 224 542 214 533 l 214 94 b 163 43 214 65 192 43 b 111 94 135 43 111 65 l 111 521 b 90 542 111 533 101 542 b 69 521 78 542 69 533 l 69 94 b 163 0 69 43 111 0 b 257 94 215 0 257 43 l 257 521 b 236 542 257 533 247 542 z m 138 619 b 153 625 143 619 149 621 l 203 676 b 203 706 211 685 211 697 b 174 706 194 714 181 714 l 122 656 b 122 625 114 647 114 633 b 138 619 126 621 132 619 z "},"ù":{"ha":326,"x_min":0,"x_max":0,"o":"m 235 542 b 214 521 224 542 214 533 l 214 94 b 163 43 214 65 192 43 b 111 94 135 43 111 65 l 111 521 b 90 542 111 533 101 542 b 69 521 78 542 69 533 l 69 94 b 163 0 69 43 111 0 b 257 94 214 0 257 43 l 257 521 b 235 542 257 533 247 542 z m 172 625 b 188 619 176 621 182 619 b 203 625 193 619 199 621 b 203 656 211 633 211 647 l 151 706 b 122 706 143 714 131 714 b 122 676 114 697 114 685 l 172 625 z "},"¥":{"ha":307,"x_min":0,"x_max":0,"o":"m 214 467 l 163 467 l 163 507 l 214 507 b 235 528 225 507 235 515 b 214 549 235 539 225 549 l 168 549 l 235 1017 b 217 1040 236 1029 228 1039 b 193 1024 206 1043 194 1035 l 142 661 l 89 1024 b 65 1040 88 1035 76 1043 b 47 1017 54 1039 46 1029 l 115 549 l 68 549 b 47 528 57 549 47 539 b 68 507 47 515 57 507 l 119 507 l 119 467 l 68 467 b 47 446 57 467 47 457 b 68 425 47 433 57 425 l 119 425 l 119 21 b 142 0 119 8 129 0 b 163 21 153 0 163 8 l 163 425 l 214 425 b 235 446 225 425 235 433 b 214 467 235 457 225 467 z "},"Æ":{"ha":472,"x_min":0,"x_max":0,"o":"m 382 499 b 403 521 393 499 403 508 b 382 542 403 532 393 542 l 257 542 l 257 947 b 308 999 257 976 281 999 b 361 947 338 999 361 976 b 382 926 361 936 369 926 b 403 947 393 926 403 936 b 308 1042 403 999 361 1042 b 236 1007 279 1042 253 1028 b 164 1042 219 1028 193 1042 b 69 947 111 1042 69 999 l 69 21 b 90 0 69 8 79 0 b 111 21 103 0 111 8 l 111 499 l 215 499 l 215 93 b 308 0 215 42 257 0 b 403 93 361 0 403 42 b 382 114 403 106 393 114 b 361 93 369 114 361 106 b 308 42 361 65 338 42 b 257 93 281 42 257 65 l 257 499 l 382 499 z m 111 947 b 164 999 111 976 135 999 b 215 947 192 999 215 976 l 215 579 b 215 579 215 579 215 579 l 215 542 l 111 542 l 111 947 z "},"Ç":{"ha":332,"x_min":0,"x_max":0,"o":"m 236 114 b 214 93 224 114 214 104 b 163 40 214 64 192 40 b 111 93 135 40 111 64 l 111 946 b 163 999 111 975 135 999 b 214 946 192 999 214 975 b 236 925 214 935 224 925 b 257 946 247 925 257 935 b 163 1040 257 999 215 1040 b 69 946 111 1040 69 999 l 69 93 b 144 0 69 47 101 8 l 132 -33 b 132 -33 132 -33 132 -33 l 131 -33 b 131 -33 131 -33 131 -33 b 131 -35 131 -35 131 -35 b 131 -35 131 -35 131 -35 b 131 -36 131 -36 131 -36 b 131 -36 131 -36 131 -36 b 131 -37 131 -37 131 -37 b 131 -39 131 -37 131 -37 b 131 -39 131 -39 131 -39 b 131 -39 131 -39 131 -39 b 131 -40 131 -39 131 -39 b 131 -40 131 -40 131 -40 b 131 -42 131 -40 131 -40 b 131 -42 131 -42 131 -42 b 131 -42 131 -42 131 -42 b 131 -43 131 -43 131 -43 b 131 -43 131 -43 131 -43 b 132 -44 131 -43 132 -44 b 132 -44 132 -44 132 -44 b 132 -46 132 -44 132 -46 b 132 -46 132 -46 132 -46 b 132 -46 132 -46 132 -46 b 133 -47 133 -47 133 -47 b 133 -47 133 -47 133 -47 b 135 -49 133 -47 133 -49 b 135 -49 135 -49 135 -49 b 135 -50 135 -49 135 -49 b 135 -50 135 -50 135 -50 b 136 -50 136 -50 136 -50 b 136 -50 136 -50 136 -50 b 138 -50 136 -50 138 -50 b 138 -51 138 -51 138 -51 b 138 -51 138 -51 138 -51 b 139 -51 139 -51 139 -51 b 139 -51 139 -51 139 -51 b 139 -51 139 -51 139 -51 b 140 -53 140 -51 140 -51 b 140 -53 140 -53 140 -53 b 142 -53 142 -53 142 -53 b 143 -53 142 -53 142 -53 b 143 -53 143 -53 143 -53 b 144 -53 143 -53 144 -53 b 144 -53 144 -53 144 -53 b 161 -72 154 -53 161 -61 b 144 -90 161 -82 154 -90 b 131 -104 136 -90 131 -97 b 144 -118 131 -112 136 -118 b 190 -72 169 -118 190 -97 b 164 -29 190 -53 179 -36 l 175 -1 b 257 93 221 6 257 44 b 236 114 257 104 247 114 z "},"Ñ":{"ha":328,"x_min":0,"x_max":0,"o":"m 236 1042 b 215 1021 224 1042 215 1032 l 215 669 l 111 1026 b 88 1042 108 1036 97 1043 b 69 1021 76 1040 69 1031 l 69 21 b 90 0 69 10 79 0 b 111 21 101 0 111 10 l 111 872 l 215 518 l 215 21 b 236 0 215 10 224 0 b 257 21 247 0 257 10 l 257 1021 b 236 1042 257 1032 247 1042 z m 129 1138 b 143 1153 136 1138 143 1144 b 129 1167 143 1160 136 1167 b 117 1179 122 1167 117 1172 b 125 1190 117 1185 119 1189 l 189 1142 b 197 1138 192 1139 194 1138 b 238 1179 219 1138 238 1157 b 197 1219 238 1201 219 1219 b 183 1206 190 1219 183 1213 b 197 1192 183 1197 190 1192 b 210 1179 204 1192 210 1186 b 201 1167 210 1174 206 1168 l 138 1217 b 129 1219 135 1218 132 1219 b 89 1179 107 1219 89 1201 b 129 1138 89 1157 107 1138 z "},"Ý":{"ha":307,"x_min":0,"x_max":0,"o":"m 117 1126 b 131 1133 121 1126 126 1129 l 182 1183 b 182 1214 189 1192 189 1206 b 151 1214 174 1221 160 1221 l 101 1163 b 101 1133 93 1154 93 1142 b 117 1126 106 1129 111 1126 z m 217 1038 b 193 1019 206 1039 194 1032 l 142 660 l 90 1019 b 65 1038 88 1032 78 1039 b 49 1014 54 1036 46 1025 l 121 511 l 121 21 b 142 0 121 10 129 0 b 163 21 153 0 163 10 l 163 511 l 235 1014 b 217 1038 236 1025 228 1036 z "},"Í":{"ha":181,"x_min":0,"x_max":0,"o":"m 92 0 l 92 0 b 113 21 103 0 113 10 l 113 1017 b 92 1038 113 1028 103 1038 b 71 1017 81 1038 71 1028 l 71 21 b 92 0 71 10 81 0 z m 92 1126 l 92 1126 b 107 1133 97 1126 103 1129 l 157 1183 b 157 1214 165 1192 165 1206 b 128 1214 149 1221 136 1221 l 76 1163 b 76 1133 68 1154 68 1142 b 92 1126 81 1129 86 1126 z "},"Ì":{"ha":181,"x_min":0,"x_max":0,"o":"m 92 0 l 92 0 b 113 21 104 0 113 10 l 113 1017 b 92 1038 113 1028 104 1038 b 71 1017 81 1038 71 1028 l 71 21 b 92 0 71 10 81 0 z m 92 1126 l 92 1126 b 107 1133 97 1126 103 1129 b 107 1163 115 1142 115 1154 l 57 1214 b 26 1214 49 1221 35 1221 b 26 1183 18 1206 18 1192 l 78 1133 b 92 1126 82 1129 86 1126 z "},"Î":{"ha":181,"x_min":0,"x_max":0,"o":"m 92 1038 b 71 1017 81 1038 71 1029 l 71 21 b 92 0 71 10 81 0 b 113 21 103 0 113 10 l 113 1017 b 92 1038 113 1029 103 1038 z m 149 1164 l 108 1213 b 75 1213 100 1222 83 1222 l 36 1164 b 38 1135 28 1156 29 1142 b 68 1138 47 1126 60 1128 l 92 1165 l 115 1138 b 132 1129 119 1132 126 1129 b 146 1135 136 1129 142 1131 b 149 1164 154 1142 156 1156 z "},"Ï":{"ha":181,"x_min":0,"x_max":0,"o":"m 90 0 l 90 0 b 113 21 103 0 113 10 l 113 1017 b 90 1038 113 1028 103 1038 b 69 1017 79 1038 69 1028 l 69 21 b 90 0 69 10 79 0 z m 51 1129 l 51 1129 b 72 1150 63 1129 72 1139 l 72 1199 b 51 1219 72 1210 63 1219 b 29 1199 39 1219 29 1210 l 29 1150 b 51 1129 29 1139 39 1129 z m 131 1129 l 131 1129 b 153 1150 143 1129 153 1139 l 153 1199 b 131 1219 153 1210 143 1219 b 110 1199 119 1219 110 1210 l 110 1150 b 131 1129 110 1139 119 1129 z "},"Ð":{"ha":347,"x_min":0,"x_max":0,"o":"m 178 1042 l 106 1042 b 85 1019 94 1042 85 1032 l 85 542 l 47 542 b 26 521 35 542 26 532 b 47 499 26 508 35 499 l 85 499 l 85 21 b 106 0 85 8 94 0 l 178 0 b 272 93 231 0 272 42 l 272 947 b 178 1042 272 999 231 1042 z m 231 93 b 178 42 231 65 207 42 l 126 42 l 126 499 l 164 499 b 186 521 176 499 186 508 b 164 542 186 532 176 542 l 126 542 l 126 999 l 178 999 b 231 947 207 999 231 976 l 231 93 z "},"Ÿ":{"ha":307,"x_min":0,"x_max":0,"o":"m 101 1129 b 124 1150 114 1129 124 1139 l 124 1199 b 101 1219 124 1210 114 1219 b 81 1199 90 1219 81 1210 l 81 1150 b 101 1129 81 1139 90 1129 z m 182 1129 b 203 1150 194 1129 203 1139 l 203 1199 b 182 1219 203 1210 194 1219 b 161 1199 171 1219 161 1210 l 161 1150 b 182 1129 161 1139 171 1129 z m 218 1038 b 194 1019 206 1039 196 1032 l 142 660 l 90 1019 b 67 1038 89 1032 78 1039 b 49 1014 56 1036 47 1025 l 121 511 l 121 21 b 142 0 121 10 131 0 b 163 21 154 0 163 10 l 163 511 l 235 1014 b 218 1038 238 1025 229 1036 z "},"ﬁ":{"ha":326,"x_min":0,"x_max":0,"o":"m 236 542 l 111 542 l 111 947 b 164 999 111 975 135 999 b 215 947 192 999 215 975 b 236 926 215 936 225 926 b 257 947 247 926 257 936 b 164 1042 257 999 215 1042 b 69 947 111 1042 69 999 l 69 93 b 164 0 69 42 111 0 b 185 21 175 0 185 8 b 164 42 185 32 175 42 b 111 93 135 42 111 65 l 111 499 l 215 499 l 215 21 b 236 0 215 8 225 0 b 257 21 247 0 257 8 l 257 521 b 236 542 257 532 247 542 z "},"ﬂ":{"ha":389,"x_min":0,"x_max":0,"o":"m 314 42 b 263 94 286 42 263 65 l 263 1021 b 242 1042 263 1032 253 1042 l 164 1042 b 69 947 113 1042 69 1000 l 69 94 b 164 0 69 42 113 0 b 185 21 175 0 185 10 b 164 42 185 33 175 42 b 113 94 135 42 113 65 l 113 500 l 181 500 b 203 521 193 500 203 510 b 181 542 203 532 193 542 l 113 542 l 113 947 b 164 1000 113 976 135 1000 l 221 1000 l 221 94 b 314 0 221 42 263 0 b 336 21 326 0 336 10 b 314 42 336 33 326 42 z "},"€":{"ha":389,"x_min":0,"x_max":0,"o":"m 292 593 b 314 614 304 593 314 601 b 292 635 314 625 304 635 l 168 635 l 168 947 b 219 999 168 976 192 999 b 271 947 249 999 271 976 b 292 926 271 936 281 926 b 314 947 304 926 314 936 b 219 1042 314 999 271 1042 b 125 947 168 1042 125 999 l 125 635 l 74 635 b 53 614 63 635 53 625 b 74 593 53 601 63 593 l 125 593 l 125 490 l 74 490 b 53 469 63 490 53 481 b 74 449 53 457 63 449 l 125 449 l 125 93 b 219 0 125 42 168 0 b 314 93 271 0 314 42 b 292 114 314 106 304 114 b 271 93 281 114 271 106 b 219 42 271 65 249 42 b 168 93 192 42 168 65 l 168 449 l 292 449 b 314 469 304 449 314 457 b 292 490 314 481 304 490 l 168 490 l 168 593 l 292 593 z "},"Œ":{"ha":472,"x_min":0,"x_max":0,"o":"m 382 500 b 403 521 393 500 403 510 b 382 542 403 533 393 542 l 257 542 l 257 949 b 308 1000 257 976 281 1000 b 361 949 338 1000 361 976 b 382 926 361 936 369 926 b 403 949 393 926 403 936 b 308 1042 403 1000 361 1042 b 236 1007 279 1042 253 1029 b 164 1042 219 1029 193 1042 b 69 949 111 1042 69 1000 l 69 94 b 164 0 69 43 111 0 b 236 35 193 0 219 14 b 308 0 253 14 279 0 b 403 94 361 0 403 43 b 382 115 403 106 393 115 b 361 94 369 115 361 106 b 308 43 361 65 338 43 b 257 94 281 43 257 65 l 257 500 l 382 500 z m 164 43 b 111 94 135 43 111 65 l 111 949 b 164 1000 111 976 135 1000 b 215 949 192 1000 215 976 l 215 94 b 164 43 215 65 192 43 z "},"Ê":{"ha":333,"x_min":0,"x_max":0,"o":"m 235 499 b 256 519 247 499 256 507 b 235 540 256 531 247 540 l 111 540 l 111 944 b 163 996 111 974 135 996 b 214 944 192 996 214 974 b 235 924 214 933 224 924 b 256 944 247 924 256 933 b 163 1038 256 996 214 1038 b 69 944 111 1038 69 996 l 69 94 b 163 0 69 42 111 0 b 256 94 214 0 256 42 b 235 115 256 106 247 115 b 214 94 224 115 214 106 b 163 43 214 65 192 43 b 111 94 135 43 111 65 l 111 499 l 235 499 z m 139 1138 l 163 1165 l 186 1138 b 203 1129 190 1132 197 1129 b 217 1135 207 1129 213 1131 b 219 1164 225 1142 226 1156 l 179 1213 b 146 1213 171 1222 154 1222 l 107 1164 b 108 1135 99 1156 100 1142 b 139 1138 118 1126 131 1128 z "},"Ë":{"ha":333,"x_min":0,"x_max":0,"o":"m 235 499 b 256 519 246 499 256 507 b 235 540 256 531 246 540 l 111 540 l 111 944 b 163 996 111 972 133 996 b 214 944 190 996 214 972 b 235 924 214 933 224 924 b 256 944 246 924 256 933 b 163 1038 256 996 214 1038 b 69 944 111 1038 69 996 l 69 94 b 163 0 69 42 111 0 b 256 94 214 0 256 42 b 235 115 256 106 246 115 b 214 94 224 115 214 106 b 163 43 214 65 190 43 b 111 94 133 43 111 65 l 111 499 l 235 499 z m 122 1129 b 143 1150 133 1129 143 1139 l 143 1199 b 122 1219 143 1210 133 1219 b 101 1199 111 1219 101 1210 l 101 1150 b 122 1129 101 1139 111 1129 z m 203 1129 b 224 1150 214 1129 224 1139 l 224 1199 b 203 1219 224 1210 214 1219 b 182 1199 190 1219 182 1210 l 182 1150 b 203 1129 182 1139 190 1129 z "},"È":{"ha":333,"x_min":0,"x_max":0,"o":"m 236 499 b 257 519 247 499 257 507 b 236 540 257 531 247 540 l 113 540 l 113 944 b 164 996 113 972 135 996 b 215 944 192 996 215 972 b 236 924 215 933 225 924 b 257 944 247 924 257 933 b 164 1038 257 996 215 1038 b 69 944 113 1038 69 996 l 69 94 b 164 0 69 42 113 0 b 257 94 215 0 257 42 b 236 115 257 106 247 115 b 215 94 225 115 215 106 b 164 43 215 65 192 43 b 113 94 135 43 113 65 l 113 499 l 236 499 z m 174 1133 b 189 1126 178 1129 183 1126 b 204 1133 194 1126 200 1129 b 204 1163 213 1142 213 1154 l 153 1214 b 124 1214 144 1221 132 1221 b 124 1183 115 1206 115 1192 l 174 1133 z "},"É":{"ha":333,"x_min":0,"x_max":0,"o":"m 236 499 b 257 519 247 499 257 507 b 236 540 257 531 247 540 l 113 540 l 113 944 b 164 996 113 972 135 996 b 215 944 192 996 215 972 b 236 924 215 933 224 924 b 257 944 247 924 257 933 b 164 1038 257 996 215 1038 b 69 944 111 1038 69 996 l 69 94 b 164 0 69 42 111 0 b 257 94 215 0 257 42 b 236 115 257 106 247 115 b 215 94 224 115 215 106 b 164 43 215 65 192 43 b 113 94 135 43 113 65 l 113 499 l 236 499 z m 138 1126 b 153 1133 143 1126 149 1129 l 203 1183 b 203 1214 211 1192 211 1206 b 174 1214 196 1221 182 1221 l 124 1163 b 124 1133 115 1154 115 1142 b 138 1126 128 1129 133 1126 z "},"Â":{"ha":333,"x_min":0,"x_max":0,"o":"m 257 944 b 164 1038 257 996 215 1038 b 71 944 113 1038 71 996 l 71 21 b 92 0 71 10 79 0 b 113 21 103 0 113 10 l 113 499 l 215 499 l 215 21 b 236 0 215 10 225 0 b 257 21 249 0 257 10 l 257 849 b 257 849 257 849 257 849 l 257 944 z m 113 540 l 113 944 b 164 996 113 974 136 996 b 215 944 192 996 215 974 l 215 578 b 215 578 215 578 215 578 l 215 540 l 113 540 z m 140 1138 l 164 1165 l 188 1138 b 204 1129 192 1132 199 1129 b 218 1135 208 1129 214 1131 b 221 1164 226 1142 228 1156 l 181 1213 b 147 1213 172 1222 156 1222 l 107 1164 b 110 1135 100 1156 101 1142 b 140 1138 119 1126 132 1128 z "},"Á":{"ha":333,"x_min":0,"x_max":0,"o":"m 257 944 b 164 1038 257 996 215 1038 b 71 944 113 1038 71 996 l 71 21 b 92 0 71 10 81 0 b 113 21 103 0 113 10 l 113 499 l 215 499 l 215 21 b 236 0 215 10 225 0 b 257 21 249 0 257 10 l 257 849 b 257 849 257 849 257 849 l 257 944 z m 113 540 l 113 944 b 164 996 113 972 136 996 b 215 944 193 996 215 972 l 215 578 b 215 578 215 578 215 578 l 215 540 l 113 540 z m 139 1126 b 154 1133 144 1126 150 1129 l 204 1183 b 204 1214 213 1192 213 1206 b 175 1214 196 1221 182 1221 l 124 1163 b 124 1133 115 1154 115 1142 b 139 1126 128 1129 133 1126 z "},"À":{"ha":333,"x_min":0,"x_max":0,"o":"m 257 944 b 164 1038 257 996 215 1038 b 71 944 113 1038 71 996 l 71 21 b 92 0 71 10 79 0 b 113 21 103 0 113 10 l 113 499 l 215 499 l 215 21 b 236 0 215 10 225 0 b 257 21 247 0 257 10 l 257 849 b 257 849 257 849 257 849 l 257 944 z m 113 540 l 113 944 b 164 996 113 972 135 996 b 215 944 192 996 215 972 l 215 578 b 215 578 215 578 215 578 l 215 540 l 113 540 z m 174 1133 b 189 1126 178 1129 183 1126 b 204 1133 194 1126 200 1129 b 204 1163 213 1142 213 1154 l 153 1214 b 124 1214 144 1221 132 1221 b 124 1183 115 1206 115 1192 l 174 1133 z "},"Ä":{"ha":333,"x_min":0,"x_max":0,"o":"m 257 944 b 164 1038 257 996 215 1038 b 71 944 113 1038 71 996 l 71 21 b 92 0 71 10 81 0 b 113 21 103 0 113 10 l 113 499 l 215 499 l 215 21 b 236 0 215 10 225 0 b 257 21 249 0 257 10 l 257 849 b 257 849 257 849 257 849 l 257 944 z m 113 540 l 113 944 b 164 996 113 972 136 996 b 215 944 192 996 215 972 l 215 578 b 215 578 215 578 215 578 l 215 540 l 113 540 z m 124 1129 b 144 1150 135 1129 144 1139 l 144 1199 b 124 1219 144 1210 135 1219 b 103 1199 113 1219 103 1210 l 103 1150 b 124 1129 103 1139 113 1129 z m 204 1129 b 225 1150 215 1129 225 1139 l 225 1199 b 204 1219 225 1210 215 1219 b 183 1199 193 1219 183 1210 l 183 1150 b 204 1129 183 1139 193 1129 z "},"Å":{"ha":333,"x_min":0,"x_max":0,"o":"m 258 942 b 164 1035 258 993 215 1035 b 71 942 113 1035 71 993 l 71 21 b 92 0 71 10 81 0 b 113 21 104 0 113 10 l 113 497 l 215 497 l 215 21 b 236 0 215 10 225 0 b 258 21 249 0 258 10 l 258 846 b 258 846 258 846 258 846 l 258 942 z m 113 539 l 113 942 b 164 993 113 969 136 993 b 215 942 193 993 215 969 l 215 576 b 215 576 215 576 215 576 l 215 539 l 113 539 z m 164 1122 b 213 1171 192 1122 213 1144 b 164 1219 213 1197 192 1219 b 115 1171 138 1219 115 1197 b 164 1122 115 1144 138 1122 z m 164 1192 b 185 1171 176 1192 185 1182 b 164 1150 185 1160 176 1150 b 144 1171 153 1150 144 1160 b 164 1192 144 1182 153 1192 z "},"Ã":{"ha":333,"x_min":0,"x_max":0,"o":"m 257 947 b 164 1042 257 1000 215 1042 b 69 947 111 1042 69 1000 l 69 21 b 90 0 69 10 79 0 b 113 21 103 0 113 10 l 113 500 l 215 500 l 215 21 b 236 0 215 10 225 0 b 257 21 249 0 257 10 l 257 851 b 257 851 257 851 257 851 l 257 947 z m 113 542 l 113 947 b 164 1000 113 976 135 1000 b 215 947 192 1000 215 976 l 215 579 b 215 579 215 579 215 579 l 215 542 l 113 542 z m 129 1138 b 143 1153 138 1138 143 1144 b 129 1167 143 1160 138 1167 b 117 1179 122 1167 117 1172 b 125 1190 117 1185 121 1189 l 189 1142 b 197 1138 192 1139 194 1138 b 239 1179 221 1138 239 1157 b 197 1219 239 1201 221 1219 b 183 1206 190 1219 183 1213 b 197 1192 183 1197 190 1192 b 210 1179 204 1192 210 1186 b 201 1167 210 1174 207 1168 l 138 1217 b 129 1219 135 1218 132 1219 b 89 1179 107 1219 89 1201 b 129 1138 89 1157 107 1138 z "},"Ó":{"ha":331,"x_min":0,"x_max":0,"o":"m 164 1038 b 69 944 111 1038 69 996 l 69 94 b 164 0 69 42 111 0 b 257 94 215 0 257 42 l 257 944 b 164 1038 257 996 215 1038 z m 215 94 b 164 43 215 65 192 43 b 113 94 135 43 113 65 l 113 944 b 164 996 113 972 135 996 b 215 944 192 996 215 972 l 215 94 z m 138 1126 b 153 1133 143 1126 149 1129 l 203 1183 b 203 1214 211 1192 211 1206 b 174 1214 196 1221 182 1221 l 124 1163 b 124 1133 115 1154 115 1142 b 138 1126 128 1129 133 1126 z "},"Ò":{"ha":331,"x_min":0,"x_max":0,"o":"m 164 1038 b 71 944 113 1038 71 996 l 71 94 b 164 0 71 42 113 0 b 258 94 215 0 258 42 l 258 944 b 164 1038 258 996 215 1038 z m 215 94 b 164 43 215 65 193 43 b 113 94 136 43 113 65 l 113 944 b 164 996 113 972 136 996 b 215 944 193 996 215 972 l 215 94 z m 175 1133 b 189 1126 179 1129 185 1126 b 204 1133 194 1126 200 1129 b 204 1163 213 1142 213 1154 l 154 1214 b 124 1214 146 1221 132 1221 b 124 1183 117 1206 117 1192 l 175 1133 z "},"Ô":{"ha":331,"x_min":0,"x_max":0,"o":"m 164 1038 b 69 944 113 1038 69 996 l 69 94 b 164 0 69 42 113 0 b 257 94 215 0 257 42 l 257 944 b 164 1038 257 996 215 1038 z m 215 94 b 164 43 215 65 192 43 b 113 94 135 43 113 65 l 113 944 b 164 996 113 974 135 996 b 215 944 192 996 215 974 l 215 94 z m 139 1138 l 164 1165 l 188 1138 b 204 1129 192 1132 197 1129 b 217 1135 208 1129 214 1131 b 219 1164 226 1142 228 1156 l 179 1213 b 147 1213 172 1222 156 1222 l 107 1164 b 110 1135 100 1156 101 1142 b 139 1138 119 1126 132 1128 z "},"Õ":{"ha":331,"x_min":0,"x_max":0,"o":"m 164 1042 b 71 947 113 1042 71 1000 l 71 94 b 164 0 71 42 113 0 b 258 94 217 0 258 42 l 258 947 b 164 1042 258 1000 217 1042 z m 217 94 b 164 42 217 65 193 42 b 113 94 136 42 113 65 l 113 947 b 164 1000 113 976 136 1000 b 217 947 193 1000 217 976 l 217 94 z m 131 1138 b 144 1153 138 1138 144 1144 b 131 1167 144 1160 138 1167 b 118 1179 124 1167 118 1172 b 126 1190 118 1185 121 1189 l 190 1142 b 199 1138 193 1139 196 1138 b 239 1179 221 1138 239 1157 b 199 1219 239 1201 221 1219 b 185 1206 192 1219 185 1213 b 199 1192 185 1197 192 1192 b 211 1179 206 1192 211 1186 b 203 1167 211 1174 207 1168 l 139 1217 b 131 1219 136 1218 133 1219 b 90 1179 108 1219 90 1201 b 131 1138 90 1157 108 1138 z "},"Ö":{"ha":331,"x_min":0,"x_max":0,"o":"m 164 1038 b 71 944 113 1038 71 996 l 71 94 b 164 0 71 42 113 0 b 258 94 215 0 258 42 l 258 944 b 164 1038 258 996 215 1038 z m 215 94 b 164 43 215 65 193 43 b 113 94 136 43 113 65 l 113 944 b 164 996 113 972 136 996 b 215 944 193 996 215 972 l 215 94 z m 124 1129 b 144 1150 136 1129 144 1139 l 144 1199 b 124 1219 144 1210 136 1219 b 103 1199 113 1219 103 1210 l 103 1150 b 124 1129 103 1139 113 1129 z m 204 1129 b 225 1150 215 1129 225 1139 l 225 1199 b 204 1219 225 1210 215 1219 b 183 1199 193 1219 183 1210 l 183 1150 b 204 1129 183 1139 193 1129 z "},"Ü":{"ha":329,"x_min":0,"x_max":0,"o":"m 236 1038 b 215 1017 225 1038 215 1028 l 215 94 b 164 43 215 65 193 43 b 113 94 136 43 113 65 l 113 1017 b 92 1038 113 1028 103 1038 b 71 1017 81 1038 71 1028 l 71 94 b 164 0 71 42 113 0 b 257 94 215 0 257 42 l 257 1017 b 236 1038 257 1028 249 1038 z m 124 1129 b 144 1150 136 1129 144 1139 l 144 1199 b 124 1219 144 1210 136 1219 b 103 1199 113 1219 103 1210 l 103 1150 b 124 1129 103 1139 113 1129 z m 204 1129 b 225 1150 215 1129 225 1139 l 225 1199 b 204 1219 225 1210 215 1219 b 183 1199 193 1219 183 1210 l 183 1150 b 204 1129 183 1139 193 1129 z "},"Û":{"ha":329,"x_min":0,"x_max":0,"o":"m 235 1038 b 214 1017 224 1038 214 1029 l 214 94 b 163 43 214 65 192 43 b 111 94 135 43 111 65 l 111 1017 b 90 1038 111 1029 101 1038 b 69 1017 79 1038 69 1029 l 69 94 b 163 0 69 42 111 0 b 257 94 214 0 257 42 l 257 1017 b 235 1038 257 1029 247 1038 z m 139 1138 l 163 1165 l 188 1138 b 203 1129 192 1132 197 1129 b 217 1135 208 1129 213 1131 b 219 1164 225 1142 226 1156 l 179 1213 b 147 1213 171 1222 154 1222 l 107 1164 b 110 1135 99 1156 100 1142 b 139 1138 118 1126 132 1128 z "},"Ú":{"ha":329,"x_min":0,"x_max":0,"o":"m 238 1039 b 215 1017 225 1039 215 1029 l 215 94 b 164 43 215 65 193 43 b 113 94 136 43 113 65 l 113 1017 b 92 1039 113 1029 104 1039 b 71 1017 81 1039 71 1029 l 71 94 b 164 0 71 42 113 0 b 258 94 217 0 258 42 l 258 1017 b 238 1039 258 1029 249 1039 z m 139 1126 b 154 1133 144 1126 150 1129 l 204 1183 b 204 1214 213 1192 213 1206 b 175 1214 196 1221 183 1221 l 125 1163 b 125 1133 117 1154 117 1142 b 139 1126 128 1129 133 1126 z "},"Ù":{"ha":329,"x_min":0,"x_max":0,"o":"m 235 1038 b 214 1017 224 1038 214 1028 l 214 94 b 163 43 214 65 192 43 b 111 94 135 43 111 65 l 111 1017 b 90 1038 111 1028 101 1038 b 69 1017 79 1038 69 1028 l 69 94 b 163 0 69 42 111 0 b 256 94 214 0 256 42 l 256 1017 b 235 1038 256 1028 247 1038 z m 174 1133 b 188 1126 178 1129 182 1126 b 203 1133 193 1126 199 1129 b 203 1163 211 1142 211 1154 l 153 1214 b 122 1214 144 1221 131 1221 b 122 1183 114 1206 114 1192 l 174 1133 z "},"Š":{"ha":328,"x_min":0,"x_max":0,"o":"m 113 946 b 164 996 114 974 136 996 b 215 944 192 996 215 974 b 236 924 215 933 225 924 b 257 944 247 924 257 933 b 164 1038 257 996 215 1038 b 71 944 113 1038 71 996 b 71 942 71 943 71 942 l 215 93 b 164 43 214 65 192 43 b 113 94 136 43 113 65 b 92 115 113 106 103 115 b 71 94 79 115 71 106 b 164 0 71 43 113 0 b 257 94 215 0 257 43 b 257 97 257 96 257 96 l 113 946 z m 147 1138 b 164 1129 151 1132 157 1129 b 181 1138 169 1129 176 1132 l 221 1185 b 218 1215 228 1194 226 1207 b 188 1213 208 1222 196 1221 l 164 1183 l 140 1213 b 110 1215 132 1221 119 1222 b 107 1185 101 1207 100 1194 l 147 1138 z "},"š":{"ha":328,"x_min":0,"x_max":0,"o":"m 113 453 b 164 500 115 479 138 500 b 215 449 193 500 215 476 b 238 428 215 436 225 428 b 258 449 249 428 258 436 b 164 542 258 500 217 542 b 71 449 113 542 71 500 b 72 440 71 446 71 443 l 215 90 b 164 43 214 64 192 43 b 113 94 136 43 113 65 b 92 115 113 106 103 115 b 71 94 79 115 71 106 b 164 0 71 43 113 0 b 258 94 217 0 258 43 b 257 103 258 97 257 100 l 113 453 z m 149 628 b 181 628 156 618 172 618 l 221 676 b 218 707 228 686 226 699 b 189 704 210 714 196 713 l 164 675 l 140 704 b 124 711 136 708 131 711 b 110 707 119 711 114 710 b 108 676 101 699 100 686 l 149 628 z "},"ž":{"ha":328,"x_min":0,"x_max":0,"o":"m 236 43 l 119 43 l 257 515 b 253 533 258 522 257 529 b 236 542 249 539 243 542 l 90 542 b 69 521 79 542 69 533 b 90 500 69 510 79 500 l 208 500 l 71 28 b 74 8 68 21 69 14 b 90 0 78 4 85 0 l 236 0 b 257 21 249 0 257 10 b 236 43 257 33 249 43 z m 147 629 b 179 629 156 619 172 619 l 221 676 b 218 707 228 686 226 700 b 188 704 208 714 196 713 l 164 675 l 139 704 b 124 711 135 710 129 711 b 110 707 118 711 114 710 b 107 676 101 700 100 686 l 147 629 z "},"Ž":{"ha":329,"x_min":0,"x_max":0,"o":"m 236 42 l 115 42 l 257 1013 b 251 1029 257 1019 256 1025 b 236 1038 247 1035 242 1038 l 90 1038 b 69 1015 79 1038 69 1028 b 90 994 69 1004 79 994 l 211 994 l 69 24 b 75 7 69 17 71 11 b 90 0 79 1 85 0 l 236 0 b 257 21 247 0 257 8 b 236 42 257 32 247 42 z m 147 1136 b 163 1128 151 1131 157 1128 b 179 1136 169 1128 175 1131 l 219 1183 b 217 1214 226 1193 226 1206 b 188 1211 208 1221 194 1219 l 163 1182 l 139 1211 b 110 1214 132 1219 118 1221 b 107 1183 100 1206 100 1193 l 147 1136 z "},"ß":{"ha":326,"x_min":0,"x_max":0,"o":"m 257 947 b 164 1042 257 999 215 1042 b 69 947 111 1042 69 999 l 69 21 b 90 0 69 10 79 0 b 111 21 103 0 111 10 l 111 947 b 164 999 111 976 135 999 b 215 947 192 999 215 976 l 215 703 b 164 651 215 674 192 651 l 164 651 b 164 651 164 651 164 651 b 142 629 151 651 142 642 b 164 608 142 618 151 608 b 215 557 192 608 215 586 l 215 93 b 164 42 215 65 192 42 b 142 21 151 42 142 32 b 164 0 142 10 151 0 b 257 93 215 0 257 42 l 257 557 b 222 629 257 586 243 613 b 257 703 243 647 257 674 l 257 947 l 257 947 b 257 947 257 947 257 947 z "},"Þ":{"ha":328,"x_min":0,"x_max":0,"o":"m 164 792 l 113 792 l 113 1021 b 92 1042 113 1032 103 1042 b 69 1021 79 1042 69 1032 l 69 21 b 92 0 69 10 79 0 b 113 21 103 0 113 10 l 113 250 l 164 250 b 258 344 215 250 258 292 l 258 699 b 164 792 258 750 215 792 z m 215 344 b 164 292 215 315 192 292 l 113 292 l 113 750 l 164 750 b 215 699 192 750 215 726 l 215 344 z "},"þ":{"ha":326,"x_min":0,"x_max":0,"o":"m 163 542 b 111 526 144 542 126 536 l 111 771 b 90 792 111 782 101 792 b 69 771 79 792 69 782 l 69 449 l 69 94 l 69 -229 b 90 -250 69 -240 79 -250 b 111 -229 101 -250 111 -240 l 111 15 b 163 0 126 6 144 0 b 257 94 215 0 257 42 l 257 449 b 163 542 257 500 215 542 z m 215 94 b 163 42 215 65 192 42 b 111 94 135 42 111 65 l 111 449 b 163 500 111 476 135 500 b 215 449 192 500 215 476 l 215 94 z "},"Ø":{"ha":326,"x_min":0,"x_max":0,"o":"m 246 992 l 250 1018 b 238 1035 251 1026 246 1033 b 222 1022 231 1036 222 1031 l 222 1021 b 163 1042 206 1033 185 1042 b 69 949 111 1042 69 1000 l 69 94 b 81 50 69 78 74 63 l 76 24 b 89 7 75 15 81 8 b 90 7 89 7 89 7 b 104 19 97 7 103 13 l 104 21 b 163 0 121 8 140 0 b 257 94 215 0 257 42 l 257 949 b 246 992 257 964 253 979 z m 111 949 b 163 1000 111 976 135 1000 b 213 961 188 1000 207 983 l 111 264 l 111 949 z m 163 42 b 113 81 139 42 119 58 l 214 778 l 214 94 b 163 42 214 65 192 42 z "},"£":{"ha":368,"x_min":0,"x_max":0,"o":"m 167 500 l 292 500 b 313 521 303 500 313 510 b 292 542 313 532 303 542 l 167 542 l 167 947 b 218 1000 167 976 190 1000 b 269 947 247 1000 269 976 b 292 926 269 936 279 926 b 313 947 303 926 313 936 b 218 1042 313 1000 269 1042 b 125 947 167 1042 125 1000 l 125 542 l 72 542 b 51 521 61 542 51 532 b 72 500 51 510 61 500 l 125 500 l 125 94 b 72 42 125 65 101 42 b 51 21 61 42 51 33 b 72 0 51 10 61 0 l 292 0 b 313 21 303 0 313 10 b 292 42 313 33 303 42 l 151 42 b 167 94 161 57 167 75 z "},"×":{"ha":283,"x_min":0,"x_max":0,"o":"m 207 331 l 171 367 l 207 403 b 207 433 217 413 215 425 b 178 433 200 440 188 442 l 142 396 l 106 433 b 75 433 96 442 83 442 b 76 403 67 425 67 413 l 113 367 l 75 329 b 75 300 67 322 67 308 b 104 300 83 292 96 292 l 142 338 l 178 301 b 208 300 188 292 200 292 b 207 331 217 308 217 322 z "},"µ":{"ha":328,"x_min":0,"x_max":0,"o":"m 236 542 b 215 521 225 542 215 532 l 215 93 b 164 42 215 65 193 42 b 113 93 136 42 113 65 l 113 261 l 113 521 b 92 542 113 532 103 542 b 69 521 79 542 69 532 l 69 261 l 69 93 l 69 -82 b 92 -103 69 -94 79 -103 b 113 -82 103 -103 113 -94 l 113 15 b 164 0 128 6 144 0 b 258 93 215 0 258 42 l 258 521 b 236 542 258 532 249 542 z "}}}
